<svg width="67" height="67" xmlns="http://www.w3.org/2000/svg" xmlns:xlink="http://www.w3.org/1999/xlink" xml:space="preserve" overflow="hidden"><defs><clipPath id="clip0"><rect x="730" y="130" width="67" height="67"/></clipPath><clipPath id="clip1"><rect x="731" y="131" width="66" height="66"/></clipPath><clipPath id="clip2"><rect x="731" y="131" width="66" height="66"/></clipPath><clipPath id="clip3"><rect x="731" y="131" width="66" height="66"/></clipPath></defs><g clip-path="url(#clip0)" transform="translate(-730 -130)"><g clip-path="url(#clip1)"><g clip-path="url(#clip2)"><g clip-path="url(#clip3)"><path d="M739.25 182.562C739.25 183.697 740.173 184.625 741.312 184.625L792.875 184.625C795.157 184.625 797 186.468 797 188.75 797 191.032 795.157 192.875 792.875 192.875L741.312 192.875C735.617 192.875 731 188.26 731 182.562L731 139.25C731 136.972 732.847 135.125 735.125 135.125 737.403 135.125 739.25 136.972 739.25 139.25L739.25 182.562ZM787.59 166.965 783.413 162.788 773.101 173.101C771.489 174.712 768.886 174.712 767.274 173.101L757.812 163.652 750.413 171.038C748.802 172.65 746.198 172.65 744.587 171.038 742.973 169.427 742.973 166.823 744.587 165.212L754.899 154.899C756.511 153.288 759.114 153.288 760.726 154.899L770.188 164.348 777.587 156.962 773.294 152.669C771.464 150.839 772.843 147.5 775.589 147.5L789.781 147.5C791.496 147.5 792.875 148.879 792.875 150.594L792.875 164.786C792.875 167.532 789.536 168.911 787.59 166.965Z" fill="#2C92E9" fill-rule="nonzero" fill-opacity="1"/></g></g></g></g></svg>