<svg width="84" height="66" xmlns="http://www.w3.org/2000/svg" xmlns:xlink="http://www.w3.org/1999/xlink" xml:space="preserve" overflow="hidden"><defs><clipPath id="clip0"><rect x="152" y="376" width="84" height="66"/></clipPath><clipPath id="clip1"><rect x="153" y="376" width="82" height="66"/></clipPath><clipPath id="clip2"><rect x="153" y="376" width="82" height="66"/></clipPath><clipPath id="clip3"><rect x="153" y="376" width="82" height="66"/></clipPath></defs><g clip-path="url(#clip0)" transform="translate(-152 -376)"><g clip-path="url(#clip1)"><g clip-path="url(#clip2)"><g clip-path="url(#clip3)"><path d="M30.7628 58.22C30.7788 59.0208 31.0169 59.8126 31.4494 60.4852L33.6391 63.7768C34.3117 64.7858 35.8518 65.6064 37.0536 65.6064L44.9615 65.6064C46.1787 65.6064 47.7008 64.787 48.3735 63.7781L50.5631 60.4865C50.9795 59.7979 51.2177 59.0221 51.2497 58.2213L51.2497 53.3064 30.7626 53.307 30.7628 58.22ZM40.9359 0.00197312C27.8672 0.0340044 18.45 10.5191 18.45 22.4347 18.45 27.8954 20.4231 33.1664 24.026 37.2716 26.1554 39.6893 29.4534 44.7323 30.7192 48.9924 30.7192 49.0245 30.734 49.0579 30.734 49.0898L51.2724 49.0899C51.2724 49.0579 51.2831 49.0245 51.2831 48.9924 52.5483 44.7323 55.8456 39.6893 57.9763 37.2716 61.5792 33.1716 63.5523 27.9005 63.5523 22.4347 63.55 10.0732 53.4025-0.0300581 40.9359 0.00197312ZM41 12.3013C35.3458 12.3013 30.75 16.8971 30.75 22.436 30.75 23.5731 29.8371 24.486 28.7 24.486 27.5629 24.486 26.65 23.5731 26.65 22.436 26.6628 14.6191 33.0691 8.21794 41 8.20128 42.1371 8.20128 43.05 9.1143 43.05 10.2513 43.05 11.3883 42.1403 12.3013 41 12.3013ZM14.35 24.6C14.35 22.9023 12.9727 21.525 11.275 21.525L3.075 21.525C1.37734 21.525 0 22.9023 0 24.6 0 26.2977 1.37734 27.675 3.075 27.675L11.275 27.675C12.9662 27.675 14.35 26.3041 14.35 24.6ZM78.925 21.525 70.725 21.525C69.0273 21.525 67.65 22.9023 67.65 24.6 67.65 26.2977 69.0273 27.675 70.725 27.675L78.925 27.675C80.6227 27.675 82 26.2977 82 24.6 82 22.9023 80.6291 21.525 78.925 21.525ZM16.7972 7.07891 9.68625 2.97891C8.74133 2.40234 7.55553 2.38633 6.57922 2.93086 5.61828 3.49141 5.02506 4.51705 5.02506 5.62148 5.04108 6.74258 5.64967 7.76758 6.61125 8.29673L13.7222 12.3961C14.6671 12.9727 15.8529 12.9887 16.8292 12.4441 17.7902 11.8836 18.3821 10.858 18.3821 9.75352 18.3731 8.63306 17.7581 7.60806 16.7972 7.07891ZM75.3887 40.9103 68.2778 36.8103C67.3329 36.2337 66.1484 36.2177 65.1708 36.7623 64.2098 37.3228 63.6179 38.3484 63.6179 39.4529 63.6339 40.574 64.2425 41.599 65.2041 42.1281L72.315 46.2281C73.7731 47.0449 75.6309 46.5324 76.4637 45.075 77.2978 43.6266 76.8109 41.7687 75.3887 40.9103ZM13.7222 36.8103 6.61381 40.9103C5.65287 41.4388 5.04428 42.4645 5.02763 43.5856 5.02763 44.6906 5.6202 45.7163 6.58178 46.2762 7.55873 46.8207 8.74325 46.8047 9.68881 46.2281L16.7997 42.1281C18.2245 41.2633 18.705 39.4055 17.8728 37.9641 17.0406 36.5028 15.1828 35.9903 13.7222 36.8103ZM66.7531 12.8125C67.2816 12.8125 67.8102 12.6684 68.2906 12.3961L75.3862 8.29609C76.8276 7.43125 77.2927 5.57344 76.4592 4.13203 75.6264 2.67525 73.7686 2.16147 72.3105 2.97891L65.2156 7.07891C63.9984 7.76758 63.4219 9.19297 63.7742 10.5383 64.1394 11.8836 65.3566 12.8125 66.7531 12.8125Z" fill="#e74b91" fill-rule="nonzero" fill-opacity="1" transform="matrix(1 0 0 1.0061 153 376)"/></g></g></g></g></svg>