<svg width="68" height="67" xmlns="http://www.w3.org/2000/svg" xmlns:xlink="http://www.w3.org/1999/xlink" xml:space="preserve" overflow="hidden"><defs><clipPath id="clip0"><rect x="676" y="582" width="68" height="67"/></clipPath><clipPath id="clip1"><rect x="677" y="583" width="66" height="66"/></clipPath><clipPath id="clip2"><rect x="677" y="583" width="66" height="66"/></clipPath><clipPath id="clip3"><rect x="677" y="583" width="66" height="66"/></clipPath></defs><g clip-path="url(#clip0)" transform="translate(-676 -582)"><g clip-path="url(#clip1)"><g clip-path="url(#clip2)"><g clip-path="url(#clip3)"><path d="M677 616C677 597.773 691.773 583 710 583 728.227 583 743 597.773 743 616 743 634.227 728.227 649 710 649 691.773 649 677 634.227 677 616ZM710.039 625.771C703.929 625.771 698.154 624.882 693.049 623.322 691.463 622.832 689.916 624.211 690.561 625.732 693.771 633.351 701.286 638.688 710.039 638.688 718.791 638.688 726.294 633.351 729.516 625.732 730.161 624.211 728.614 622.832 727.029 623.322 721.911 624.882 716.149 625.771 710.039 625.771ZM699.739 605.688C697.457 605.688 695.614 607.531 695.614 609.812 695.614 612.094 697.457 613.938 699.739 613.938 702.008 613.938 703.864 612.094 703.864 609.812 703.864 607.531 702.008 605.688 699.739 605.688ZM720.364 613.938C722.633 613.938 724.489 612.094 724.489 609.812 724.489 607.531 722.633 605.688 720.364 605.688 718.082 605.688 716.239 607.531 716.239 609.812 716.239 612.094 718.082 613.938 720.364 613.938Z" fill="#FD7043" fill-rule="nonzero" fill-opacity="1"/></g></g></g></g></svg>