<svg width="65" height="66" xmlns="http://www.w3.org/2000/svg" xmlns:xlink="http://www.w3.org/1999/xlink" xml:space="preserve" overflow="hidden"><defs><clipPath id="clip0"><rect x="924" y="136" width="65" height="66"/></clipPath><clipPath id="clip1"><rect x="924" y="137" width="65" height="65"/></clipPath><clipPath id="clip2"><rect x="924" y="137" width="65" height="65"/></clipPath><clipPath id="clip3"><rect x="924" y="137" width="65" height="65"/></clipPath></defs><g clip-path="url(#clip0)" transform="translate(-924 -136)"><g clip-path="url(#clip1)"><g clip-path="url(#clip2)"><g clip-path="url(#clip3)"><path d="M987.515 193.329 972.318 178.133C975.774 173.003 977.479 166.593 976.566 159.763 975.01 148.145 965.488 138.691 953.859 137.219 936.57 135.031 922.031 149.57 924.219 166.859 925.692 178.493 935.147 188.022 946.766 189.571 953.596 190.484 960.007 188.78 965.136 185.323L980.332 200.52C982.315 202.503 985.531 202.503 987.514 200.52 989.495 198.534 989.495 195.31 987.515 193.329ZM934.042 163.406C934.042 154.446 941.332 147.156 950.292 147.156 959.252 147.156 966.542 154.446 966.542 163.406 966.542 172.367 959.252 179.656 950.292 179.656 941.332 179.656 934.042 172.369 934.042 163.406Z" fill="#FA734C" fill-rule="nonzero" fill-opacity="1"/></g></g></g></g></svg>