<svg width="67" height="67" xmlns="http://www.w3.org/2000/svg" xmlns:xlink="http://www.w3.org/1999/xlink" xml:space="preserve" overflow="hidden"><defs><clipPath id="clip0"><rect x="1013" y="133" width="67" height="67"/></clipPath><clipPath id="clip1"><rect x="1014" y="134" width="66" height="65"/></clipPath><clipPath id="clip2"><rect x="1014" y="134" width="66" height="65"/></clipPath><clipPath id="clip3"><rect x="1014" y="134" width="66" height="65"/></clipPath></defs><g clip-path="url(#clip0)" transform="translate(-1013 -133)"><g clip-path="url(#clip1)"><g clip-path="url(#clip2)"><g clip-path="url(#clip3)"><path d="M12.1875 0C14.4346 0 16.25 1.81924 16.25 4.0625L16.25 11.0018C19.8428 12.5684 22.3438 16.1484 22.3438 20.3125 22.3438 24.4766 19.8428 27.9424 16.25 29.6182L16.25 60.9375C16.25 63.1846 14.4346 65 12.1875 65 9.94424 65 8.125 63.1846 8.125 60.9375L8.125 29.6182C4.53857 27.9424 2.03125 24.4766 2.03125 20.3125 2.03125 16.1484 4.53857 12.5684 8.125 11.0018L8.125 4.0625C8.125 1.81924 9.94424 0 12.1875 0ZM12.1875 24.375C14.4346 24.375 16.25 22.5596 16.25 20.3125 16.25 18.0654 14.4346 16.25 12.1875 16.25 9.94424 16.25 8.125 18.0654 8.125 20.3125 8.125 22.5596 9.94424 24.375 12.1875 24.375ZM42.6562 44.6875C42.6562 48.8516 40.1553 52.3174 36.5625 53.9932L36.5625 60.9375C36.5625 63.1846 34.7471 65 32.5 65 30.2529 65 28.4375 63.1846 28.4375 60.9375L28.4375 53.9932C24.8447 52.3174 22.3438 48.8516 22.3438 44.6875 22.3438 40.5234 24.8447 36.9434 28.4375 35.3818L28.4375 4.0625C28.4375 1.81924 30.2529 0 32.5 0 34.7471 0 36.5625 1.81924 36.5625 4.0625L36.5625 35.3818C40.1553 36.9434 42.6562 40.5234 42.6562 44.6875ZM32.5 48.75C34.7471 48.75 36.5625 46.9346 36.5625 44.6875 36.5625 42.4404 34.7471 40.625 32.5 40.625 30.2529 40.625 28.4375 42.4404 28.4375 44.6875 28.4375 46.9346 30.2529 48.75 32.5 48.75ZM56.875 60.9375C56.875 63.1846 55.0596 65 52.8125 65 50.5654 65 48.75 63.1846 48.75 60.9375L48.75 33.6807C45.1572 32.0049 42.6562 28.5391 42.6562 24.375 42.6562 20.2109 45.1572 16.6309 48.75 15.0693L48.75 4.0625C48.75 1.81924 50.5654 0 52.8125 0 55.0596 0 56.875 1.81924 56.875 4.0625L56.875 15.0693C60.4678 16.6309 62.9688 20.2109 62.9688 24.375 62.9688 28.5391 60.4678 32.0049 56.875 33.6807L56.875 60.9375ZM52.8125 20.3125C50.5654 20.3125 48.75 22.1279 48.75 24.375 48.75 26.6221 50.5654 28.4375 52.8125 28.4375 55.0596 28.4375 56.875 26.6221 56.875 24.375 56.875 22.1279 55.0596 20.3125 52.8125 20.3125Z" fill="#FA734C" fill-rule="nonzero" fill-opacity="1" transform="matrix(1.01538 0 0 1 1014 134)"/></g></g></g></g></svg>