<svg width="66" height="66" xmlns="http://www.w3.org/2000/svg" xmlns:xlink="http://www.w3.org/1999/xlink" xml:space="preserve" overflow="hidden"><g><g><path d="M33 4.00898C14.7727 4.00898 0.116016 16.014 0.116016 30.8215 0.116016 37.2178 2.86816 43.065 7.4598 47.6695 5.84848 54.1638 0.464062 59.9504 0.399609 60.0149 0.10957 60.3049 0.0290039 60.754 0.20625 61.1407 0.367383 61.5275 0.724582 61.7551 1.14353 61.7551 9.68357 61.7551 15.9806 57.6611 19.2677 55.1306 23.474 56.7097 28.1649 57.6301 33.1123 57.6301 51.3396 57.6301 65.9963 45.6251 65.9963 30.9336 65.9963 16.2422 51.2273 4.00898 33 4.00898ZM41.134 18.5625C43.4221 18.5625 45.143 20.3994 45.143 22.6875 45.143 24.9756 43.3073 26.6965 41.0193 26.6965 38.7312 26.6965 37.009 24.982 37.009 22.6875 37.009 20.393 38.9555 18.5625 41.134 18.5625ZM24.634 18.5625C26.9221 18.5625 28.643 20.3994 28.643 22.6875 28.643 24.9756 27.0316 26.6965 24.634 26.6965 22.2363 26.6965 20.509 24.982 20.509 22.6875 20.509 20.393 22.4555 18.5625 24.634 18.5625ZM46.6898 39.0973C43.2738 43.0934 38.2968 45.3814 33 45.3814 27.6994 45.3814 22.7197 43.0934 19.3102 39.0973 18.2145 37.8082 18.3434 35.8591 19.6485 34.7467 20.9344 33.6445 22.8938 33.7863 24.0023 35.1012 26.2324 37.6922 29.5066 39.1875 32.884 39.1875 36.3799 39.1875 39.6503 37.6896 41.8739 35.0947 42.9855 33.7902 44.9354 33.6278 46.2232 34.7402 47.6437 35.8488 47.7855 37.8082 46.6898 39.0973Z" fill="#e74b91" fill-rule="nonzero" fill-opacity="1"/></g></g></svg>