<svg width="66" height="66" xmlns="http://www.w3.org/2000/svg" xmlns:xlink="http://www.w3.org/1999/xlink" xml:space="preserve" overflow="hidden"><g><g><path d="M66 33C66 51.2273 51.2273 66 33 66 14.7727 66 0 51.2273 0 33 0 14.7727 14.7727 0 33 0 51.2273 0 66 14.7727 66 33ZM31.1566 14.5535 26.4773 24.0281 16.0359 25.5363C15.2496 25.6523 14.6051 26.1938 14.3602 26.9414 14.1281 27.6891 14.3215 28.5141 14.8887 29.0555L22.4426 36.4289 20.6637 46.8316C20.5348 47.6051 20.8441 48.3914 21.4887 48.7395 22.1203 49.3195 22.9582 49.3711 23.6543 49.0102L32.884 44.0988 42.3457 49.0102C43.0418 49.3711 43.8797 49.3195 44.5113 48.7395 45.1559 48.3914 45.4652 47.6051 45.3363 46.8316L43.5574 36.4289 51.1113 29.0555C51.6785 28.5141 51.8719 27.6891 51.6398 26.9414 51.3949 26.1938 50.7504 25.6523 49.9641 25.5363L39.5227 24.0281 34.8434 14.5535C34.5082 13.8574 33.7863 13.4062 32.884 13.4062 32.2137 13.4062 31.4918 13.8574 31.1566 14.5535Z" fill="#3C8BFF" fill-rule="nonzero" fill-opacity="1"/></g></g></svg>