<svg width="50" height="65" xmlns="http://www.w3.org/2000/svg" xmlns:xlink="http://www.w3.org/1999/xlink" xml:space="preserve" overflow="hidden"><defs><clipPath id="clip0"><rect x="58" y="472" width="50" height="65"/></clipPath><clipPath id="clip1"><rect x="59" y="472" width="49" height="65"/></clipPath><clipPath id="clip2"><rect x="59" y="472" width="49" height="65"/></clipPath><clipPath id="clip3"><rect x="59" y="472" width="49" height="65"/></clipPath></defs><g clip-path="url(#clip0)" transform="translate(-58 -472)"><g clip-path="url(#clip1)"><g clip-path="url(#clip2)"><g clip-path="url(#clip3)"><path d="M30.5322 28.4375 44.6875 28.4375C46.376 28.4375 47.8994 29.4912 48.3818 31.0654 49.0801 32.6523 48.6357 34.4424 47.3662 35.5596L14.8662 63.9971C13.4316 65.2412 11.3331 65.3428 9.79951 64.2256 8.26465 63.1084 7.70605 61.0771 8.45381 59.3379L18.2178 36.5625 3.94824 36.5625C2.37021 36.5625 0.854775 35.5088 0.259492 33.9346-0.335791 32.3477 0.113547 30.5576 1.3876 29.4404L33.8838 1.00521C35.3184-0.24375 37.4131-0.338838 38.9492 0.776191 40.4854 1.8916 41.0439 3.91904 40.2949 5.66338L30.5322 28.4375Z" fill="#3C8BFF" fill-rule="nonzero" fill-opacity="1" transform="matrix(1.00513 0 0 1 59 472)"/></g></g></g></g></svg>