<svg width="66" height="66" xmlns="http://www.w3.org/2000/svg" xmlns:xlink="http://www.w3.org/1999/xlink" xml:space="preserve" overflow="hidden"><g><g><path d="M8.25 63.9375C8.25 65.0719 7.31543 66 6.1875 66L2.0625 66C0.93457 66 0 65.0719 0 63.9375L0 4.125C0 1.83691 1.83691 0 4.125 0 6.41309 0 8.25 1.83691 8.25 4.125L8.25 63.9375ZM61.398 0C60.5776 0 59.721 0.174023 58.905 0.54566 53.0153 3.23464 48.6492 4.1473 45.0089 4.1473 37.2797 4.1473 32.7873 0.0403477 23.8812 0.0390586 20.741 0.0393809 16.9641 0.627387 12.375 2.03027L12.375 47.2119C16.5 45.9249 20.0926 45.3943 23.3127 45.3943 32.8041 45.3943 39.4131 49.491 48.9135 49.491 53.0269 49.491 57.6817 48.7213 63.235 46.5145 64.9816 45.8777 66 44.3953 66 42.8098L66 3.96129C66 1.43086 63.8473 0 61.398 0Z" fill="#e74b91" fill-rule="nonzero" fill-opacity="1"/></g></g></svg>