<svg width="75" height="66" xmlns="http://www.w3.org/2000/svg" xmlns:xlink="http://www.w3.org/1999/xlink" xml:space="preserve" overflow="hidden"><defs><clipPath id="clip0"><rect x="146" y="580" width="75" height="66"/></clipPath><clipPath id="clip1"><rect x="147" y="580" width="74" height="66"/></clipPath><clipPath id="clip2"><rect x="147" y="580" width="74" height="66"/></clipPath><clipPath id="clip3"><rect x="147" y="580" width="74" height="66"/></clipPath></defs><g clip-path="url(#clip0)" transform="translate(-146 -580)"><g clip-path="url(#clip1)"><g clip-path="url(#clip2)"><g clip-path="url(#clip3)"><path d="M12.3333 0C13.8108 0 15.0826 1.05219 15.3653 2.50649L15.558 4.11111 69.6062 4.11111C72.2142 4.11111 74.2955 6.71267 73.5632 9.33479L66.6257 34.0066C66.1247 35.7795 64.5059 37 62.6688 37L21.9302 37 23.1122 43.1667 62.6944 43.1667C64.4031 43.1667 65.7778 44.5413 65.7778 46.25 65.7778 47.9587 64.4031 49.3333 62.6944 49.3333L20.4399 49.3333C19.0781 49.3333 17.8063 48.2799 17.5236 46.8281L9.78187 6.16667 3.08333 6.16667C1.38108 6.16667 0 4.78559 0 3.08333 0 1.38108 1.38108 0 3.08333 0L12.3333 0ZM16.4444 59.6111C16.4444 56.2066 19.2066 53.4444 22.6111 53.4444 26.0156 53.4444 28.7778 56.2066 28.7778 59.6111 28.7778 63.0156 26.0156 65.7778 22.6111 65.7778 19.2066 65.7778 16.4444 63.0156 16.4444 59.6111ZM65.7778 59.6111C65.7778 63.0156 63.0156 65.7778 59.6111 65.7778 56.2066 65.7778 53.4444 63.0156 53.4444 59.6111 53.4444 56.2066 56.2066 53.4444 59.6111 53.4444 63.0156 53.4444 65.7778 56.2066 65.7778 59.6111Z" fill="#e74b91" fill-rule="nonzero" fill-opacity="1" transform="matrix(1 0 0 1.00338 147 580)"/></g></g></g></g></svg>