<svg version="1.1" id="Layer_1" xmlns="http://www.w3.org/2000/svg" xmlns:xlink="http://www.w3.org/1999/xlink" x="0px" y="0px"
	 width="100%" viewBox="0 0 831 226" enable-background="new 0 0 831 226" xml:space="preserve">
<path fill="#010101" opacity="1.000000" stroke="none" 
	d="
M603.000000,227.000000 
	C402.047394,227.000000 201.594772,227.000000 1.071077,227.000000 
	C1.071077,151.731918 1.071077,76.463737 1.071077,1.097783 
	C277.999969,1.097783 555.000000,1.097783 831.972778,1.097783 
	C831.972778,76.405289 831.972778,151.702652 831.972778,227.000000 
	C755.796997,227.000000 679.648499,227.000000 603.000000,227.000000 
M336.298615,78.012215 
	C332.466309,78.016922 328.619659,77.809196 324.804443,78.067017 
	C314.259033,78.779617 305.910736,83.236534 301.457520,93.215797 
	C296.945068,103.327881 297.072327,113.791687 299.878632,124.371170 
	C302.553680,134.455917 308.785797,140.833466 319.045258,142.933868 
	C332.525513,145.693695 345.410126,142.951019 357.915283,138.016190 
	C359.278564,137.478210 360.815155,135.210007 360.825134,133.734543 
	C361.002441,107.576073 360.978333,81.416000 360.887573,55.256649 
	C360.883118,53.970608 360.233765,52.074680 359.270142,51.508240 
	C354.676361,48.807999 350.054535,51.644714 350.025848,57.004608 
	C349.985962,64.458916 350.015808,71.913589 350.015808,79.895821 
	C345.273743,79.198250 341.254303,78.606972 336.298615,78.012215 
M704.036865,112.883881 
	C704.958801,112.109146 706.604004,111.407654 706.691040,110.548363 
	C707.580994,101.759613 706.465576,93.692017 700.844543,86.090553 
	C693.543457,76.217270 666.762878,76.269669 656.993469,82.152809 
	C642.655457,90.787201 641.286011,114.956558 646.325195,127.345924 
	C650.443359,137.470917 658.900146,142.128342 669.624146,143.426819 
	C682.830200,145.025879 695.352051,143.894485 706.802429,136.213577 
	C706.525391,135.586563 706.366577,135.131531 706.131042,134.720444 
	C705.884094,134.289459 705.503906,133.930313 705.284119,133.488876 
	C702.277954,127.450859 703.206726,127.536377 695.581848,130.443970 
	C689.521790,132.754852 682.908997,134.541885 676.481873,134.754150 
	C666.008972,135.100067 658.511719,128.754517 656.428833,119.627625 
	C655.208740,114.281364 656.132446,113.033585 661.635803,113.010025 
	C675.463562,112.950813 689.291565,112.962021 704.036865,112.883881 
M172.717880,78.039017 
	C158.303162,80.133057 152.954147,87.530365 151.386322,97.568375 
	C150.032211,106.238182 150.599564,115.356964 151.420563,124.174561 
	C152.197449,132.518417 157.341187,138.730713 165.278778,141.418869 
	C175.507828,144.883041 186.011490,145.008438 196.580444,142.036957 
	C206.341415,139.292664 211.543472,132.391800 213.670181,123.266472 
	C215.666000,114.702728 215.711136,105.951920 213.287003,97.217232 
	C210.342606,86.607910 203.113403,79.362404 192.302444,78.217407 
	C186.126511,77.563309 179.831070,78.037460 172.717880,78.039017 
M739.048035,83.536041 
	C738.037598,85.581375 736.182861,87.613602 736.150879,89.674133 
	C735.905334,105.484573 736.154236,121.302536 735.925842,137.113495 
	C735.859070,141.737579 737.469116,143.129639 741.972534,143.109314 
	C746.393433,143.089340 748.162537,141.876938 748.078369,137.169098 
	C747.828491,123.190552 748.118774,109.202843 747.926453,95.222458 
	C747.871216,91.207138 749.466675,89.424774 753.237671,89.010277 
	C757.183289,88.576591 761.117737,88.039185 765.054626,87.528343 
	C778.825745,85.741432 786.065674,90.481094 786.014954,104.541451 
	C785.975342,115.528015 786.195312,126.519173 785.933777,137.499557 
	C785.824524,142.088043 787.735779,143.177216 791.871155,143.069824 
	C795.642090,142.971893 798.177917,142.699753 798.075012,137.782791 
	C797.807068,124.970573 798.118591,112.146729 797.897766,99.332703 
	C797.839233,95.932076 797.054138,92.430359 795.977295,89.182396 
	C792.856750,79.769943 785.119934,77.232048 776.315552,77.066208 
	C763.785339,76.830185 751.570740,78.861160 739.048035,83.536041 
M109.002220,111.506088 
	C109.007156,120.337921 109.200211,129.175293 108.940132,137.999313 
	C108.803749,142.626450 111.218758,143.131195 114.859268,143.031998 
	C118.212219,142.940613 121.113800,143.153610 121.043541,138.268066 
	C120.842285,124.273323 121.136375,110.271179 120.911041,96.277168 
	C120.756607,86.686119 115.239281,79.599159 105.824387,77.884796 
	C90.892128,75.165749 76.516159,78.806580 62.434753,83.465729 
	C61.278427,83.848320 60.156525,86.339737 60.142204,87.861870 
	C59.982277,104.857361 60.006992,121.855179 60.119091,138.851456 
	C60.127445,140.117996 60.847237,142.004517 61.818897,142.534302 
	C66.603798,145.143280 70.960808,142.378708 70.974579,136.898941 
	C71.009323,123.067986 71.099030,109.235603 70.927864,95.406738 
	C70.882713,91.759064 72.075859,89.770729 75.705650,89.292587 
	C81.283394,88.557838 86.836739,87.361015 92.433998,87.110664 
	C103.008392,86.637688 109.785561,91.375282 109.026955,103.012466 
	C108.864700,105.501495 109.002602,108.010094 109.002220,111.506088 
M471.217407,75.983444 
	C463.913971,77.429573 456.617798,78.914146 449.300812,80.288246 
	C447.897186,80.551842 446.177704,80.881470 445.001831,80.330872 
	C436.347260,76.278404 427.121887,76.470612 418.062073,77.170288 
	C405.020813,78.177460 397.181671,82.734001 395.354156,96.758064 
	C393.794128,108.729294 396.895081,120.524452 411.352844,123.432556 
	C418.516846,124.873550 426.184601,124.713913 433.520569,124.078789 
	C438.424561,123.654221 443.836731,122.102425 447.803802,119.319359 
	C455.889709,113.646713 457.116638,104.890495 455.330139,95.664742 
	C453.677887,87.132378 453.916870,86.729912 462.769806,85.987350 
	C462.935516,85.973450 463.103516,85.983902 463.268707,85.966507 
	C468.290314,85.437943 473.311676,84.907310 478.313629,84.379051 
	C477.357361,75.102974 477.300476,75.030396 471.217407,75.983444 
M256.119629,90.112778 
	C257.385651,89.066551 258.528320,87.354652 259.939789,87.093124 
	C265.139374,86.129723 270.428040,85.647163 275.683075,84.982880 
	C277.955902,84.695580 281.369843,85.749626 280.567566,81.483727 
	C279.975891,78.337555 280.429932,73.853737 274.824524,75.094238 
	C266.265198,76.988457 257.725342,78.972549 249.153183,80.806099 
	C245.270599,81.636566 243.864212,83.677528 243.920609,87.772430 
	C244.145508,104.101685 244.157227,120.437920 243.923019,136.766907 
	C243.855026,141.507599 245.293442,143.080276 250.140503,143.145767 
	C255.376663,143.216522 256.112762,140.886139 256.064850,136.498657 
	C255.899231,121.335129 256.031525,106.168350 256.119629,90.112778 
M498.517090,82.218285 
	C498.051331,83.038643 497.183075,83.857002 497.178955,84.679672 
	C497.087677,102.964081 497.061035,121.249130 497.156433,139.533356 
	C497.162018,140.594238 498.050201,142.185913 498.960632,142.617813 
	C504.034485,145.024811 507.964539,142.412506 507.976929,136.762985 
	C508.009033,122.133987 508.068298,107.504318 507.951080,92.876244 
	C507.922089,89.260818 509.099579,87.183617 512.859924,86.840210 
	C514.495972,86.690804 516.097839,86.187691 517.733093,86.006485 
	C522.934387,85.430107 528.144104,84.929550 533.301941,84.404633 
	C533.117554,75.833206 532.295288,74.249245 527.718933,75.198402 
	C518.183716,77.176071 508.749969,79.642593 498.517090,82.218285 
z"/>
<path fill="#2E3B47" opacity="1.000000" stroke="none" 
	d="
M336.766724,78.013962 
	C341.254303,78.606972 345.273743,79.198250 350.015808,79.895821 
	C350.015808,71.913589 349.985962,64.458916 350.025848,57.004608 
	C350.054535,51.644714 354.676361,48.807999 359.270142,51.508240 
	C360.233765,52.074680 360.883118,53.970608 360.887573,55.256649 
	C360.978333,81.416000 361.002441,107.576073 360.825134,133.734543 
	C360.815155,135.210007 359.278564,137.478210 357.915283,138.016190 
	C345.410126,142.951019 332.525513,145.693695 319.045258,142.933868 
	C308.785797,140.833466 302.553680,134.455917 299.878632,124.371170 
	C297.072327,113.791687 296.945068,103.327881 301.457520,93.215797 
	C305.910736,83.236534 314.259033,78.779617 324.804443,78.067017 
	C328.619659,77.809196 332.466309,78.016922 336.766724,78.013962 
M319.831451,90.135002 
	C315.482483,93.286163 312.108704,97.285034 312.017731,102.797974 
	C311.913086,109.140587 312.069824,115.579971 313.074585,121.822548 
	C314.088104,128.119629 318.185486,133.002167 324.668793,133.735855 
	C331.459137,134.504288 338.436157,133.944778 345.297913,133.474457 
	C346.590332,133.385880 348.708252,131.039886 348.777863,129.651947 
	C349.392181,117.404083 349.728546,105.138336 349.854645,92.874878 
	C349.870575,91.321877 348.417908,88.588058 347.275513,88.373634 
	C338.292664,86.687759 329.215454,85.413391 319.831451,90.135002 
z"/>
<path fill="#2E3B47" opacity="1.000000" stroke="none" 
	d="
M703.578186,112.914436 
	C689.291565,112.962021 675.463562,112.950813 661.635803,113.010025 
	C656.132446,113.033585 655.208740,114.281364 656.428833,119.627625 
	C658.511719,128.754517 666.008972,135.100067 676.481873,134.754150 
	C682.908997,134.541885 689.521790,132.754852 695.581848,130.443970 
	C703.206726,127.536377 702.277954,127.450859 705.284119,133.488876 
	C705.503906,133.930313 705.884094,134.289459 706.131042,134.720444 
	C706.366577,135.131531 706.525391,135.586563 706.802429,136.213577 
	C695.352051,143.894485 682.830200,145.025879 669.624146,143.426819 
	C658.900146,142.128342 650.443359,137.470917 646.325195,127.345924 
	C641.286011,114.956558 642.655457,90.787201 656.993469,82.152809 
	C666.762878,76.269669 693.543457,76.217270 700.844543,86.090553 
	C706.465576,93.692017 707.580994,101.759613 706.691040,110.548363 
	C706.604004,111.407654 704.958801,112.109146 703.578186,112.914436 
M694.924133,98.757721 
	C692.437744,88.337250 682.080750,85.169052 673.850830,86.359215 
	C661.391602,88.160973 656.649292,93.554276 656.828674,104.455353 
	C669.656677,104.455353 682.484802,104.455353 695.673950,104.455353 
	C695.394653,102.432793 695.195068,100.987396 694.924133,98.757721 
z"/>
<path fill="#2F3C48" opacity="1.000000" stroke="none" 
	d="
M173.153656,78.021309 
	C179.831070,78.037460 186.126511,77.563309 192.302444,78.217407 
	C203.113403,79.362404 210.342606,86.607910 213.287003,97.217232 
	C215.711136,105.951920 215.666000,114.702728 213.670181,123.266472 
	C211.543472,132.391800 206.341415,139.292664 196.580444,142.036957 
	C186.011490,145.008438 175.507828,144.883041 165.278778,141.418869 
	C157.341187,138.730713 152.197449,132.518417 151.420563,124.174561 
	C150.599564,115.356964 150.032211,106.238182 151.386322,97.568375 
	C152.954147,87.530365 158.303162,80.133057 173.153656,78.021309 
M195.165970,131.800781 
	C199.980392,128.475845 201.637039,123.515282 201.935776,118.043442 
	C202.180603,113.558998 201.983292,109.050697 201.990921,104.552979 
	C202.008774,94.020142 197.667175,87.919769 187.330322,86.470451 
	C174.454453,84.665138 165.383347,87.689499 163.436920,98.258682 
	C162.057831,105.747299 162.692673,113.725410 163.286865,121.418732 
	C163.710190,126.899734 166.627136,131.748734 172.290192,133.469147 
	C179.737976,135.731735 187.316788,136.394073 195.165970,131.800781 
z"/>
<path fill="#2E3B47" opacity="1.000000" stroke="none" 
	d="
M739.411499,83.365990 
	C751.570740,78.861160 763.785339,76.830185 776.315552,77.066208 
	C785.119934,77.232048 792.856750,79.769943 795.977295,89.182396 
	C797.054138,92.430359 797.839233,95.932076 797.897766,99.332703 
	C798.118591,112.146729 797.807068,124.970573 798.075012,137.782791 
	C798.177917,142.699753 795.642090,142.971893 791.871155,143.069824 
	C787.735779,143.177216 785.824524,142.088043 785.933777,137.499557 
	C786.195312,126.519173 785.975342,115.528015 786.014954,104.541451 
	C786.065674,90.481094 778.825745,85.741432 765.054626,87.528343 
	C761.117737,88.039185 757.183289,88.576591 753.237671,89.010277 
	C749.466675,89.424774 747.871216,91.207138 747.926453,95.222458 
	C748.118774,109.202843 747.828491,123.190552 748.078369,137.169098 
	C748.162537,141.876938 746.393433,143.089340 741.972534,143.109314 
	C737.469116,143.129639 735.859070,141.737579 735.925842,137.113495 
	C736.154236,121.302536 735.905334,105.484573 736.150879,89.674133 
	C736.182861,87.613602 738.037598,85.581375 739.411499,83.365990 
z"/>
<path fill="#2E3B47" opacity="1.000000" stroke="none" 
	d="
M109.002228,111.007889 
	C109.002602,108.010094 108.864700,105.501495 109.026955,103.012466 
	C109.785561,91.375282 103.008392,86.637688 92.433998,87.110664 
	C86.836739,87.361015 81.283394,88.557838 75.705650,89.292587 
	C72.075859,89.770729 70.882713,91.759064 70.927864,95.406738 
	C71.099030,109.235603 71.009323,123.067986 70.974579,136.898941 
	C70.960808,142.378708 66.603798,145.143280 61.818897,142.534302 
	C60.847237,142.004517 60.127445,140.117996 60.119091,138.851456 
	C60.006992,121.855179 59.982277,104.857361 60.142204,87.861870 
	C60.156525,86.339737 61.278427,83.848320 62.434753,83.465729 
	C76.516159,78.806580 90.892128,75.165749 105.824387,77.884796 
	C115.239281,79.599159 120.756607,86.686119 120.911041,96.277168 
	C121.136375,110.271179 120.842285,124.273323 121.043541,138.268066 
	C121.113800,143.153610 118.212219,142.940613 114.859268,143.031998 
	C111.218758,143.131195 108.803749,142.626450 108.940132,137.999313 
	C109.200211,129.175293 109.007156,120.337921 109.002228,111.007889 
z"/>
<path fill="#2F3B48" opacity="1.000000" stroke="none" 
	d="
M471.630981,75.961548 
	C477.300476,75.030396 477.357361,75.102974 478.313629,84.379051 
	C473.311676,84.907310 468.290314,85.437943 463.268707,85.966507 
	C463.103516,85.983902 462.935516,85.973450 462.769806,85.987350 
	C453.916870,86.729912 453.677887,87.132378 455.330139,95.664742 
	C457.116638,104.890495 455.889709,113.646713 447.803802,119.319359 
	C443.836731,122.102425 438.424561,123.654221 433.520569,124.078789 
	C426.184601,124.713913 418.516846,124.873550 411.352844,123.432556 
	C396.895081,120.524452 393.794128,108.729294 395.354156,96.758064 
	C397.181671,82.734001 405.020813,78.177460 418.062073,77.170288 
	C427.121887,76.470612 436.347260,76.278404 445.001831,80.330872 
	C446.177704,80.881470 447.897186,80.551842 449.300812,80.288246 
	C456.617798,78.914146 463.913971,77.429573 471.630981,75.961548 
M440.436127,111.862167 
	C447.182098,101.364532 443.792816,86.966217 430.431946,85.324135 
	C423.869690,84.517624 417.297272,84.654579 411.886414,88.844269 
	C406.855530,92.739723 406.787964,102.615822 409.099274,108.459412 
	C410.174683,111.178238 413.074951,113.936455 415.816193,115.092911 
	C424.147949,118.607841 432.326630,117.248573 440.436127,111.862167 
z"/>
<path fill="#2E3B47" opacity="1.000000" stroke="none" 
	d="
M256.085022,90.557793 
	C256.031525,106.168350 255.899231,121.335129 256.064850,136.498657 
	C256.112762,140.886139 255.376663,143.216522 250.140503,143.145767 
	C245.293442,143.080276 243.855026,141.507599 243.923019,136.766907 
	C244.157227,120.437920 244.145508,104.101685 243.920609,87.772430 
	C243.864212,83.677528 245.270599,81.636566 249.153183,80.806099 
	C257.725342,78.972549 266.265198,76.988457 274.824524,75.094238 
	C280.429932,73.853737 279.975891,78.337555 280.567566,81.483727 
	C281.369843,85.749626 277.955902,84.695580 275.683075,84.982880 
	C270.428040,85.647163 265.139374,86.129723 259.939789,87.093124 
	C258.528320,87.354652 257.385651,89.066551 256.085022,90.557793 
z"/>
<path fill="#2E3B47" opacity="1.000000" stroke="none" 
	d="
M498.895813,82.063255 
	C508.749969,79.642593 518.183716,77.176071 527.718933,75.198402 
	C532.295288,74.249245 533.117554,75.833206 533.301941,84.404633 
	C528.144104,84.929550 522.934387,85.430107 517.733093,86.006485 
	C516.097839,86.187691 514.495972,86.690804 512.859924,86.840210 
	C509.099579,87.183617 507.922089,89.260818 507.951080,92.876244 
	C508.068298,107.504318 508.009033,122.133987 507.976929,136.762985 
	C507.964539,142.412506 504.034485,145.024811 498.960632,142.617813 
	C498.050201,142.185913 497.162018,140.594238 497.156433,139.533356 
	C497.061035,121.249130 497.087677,102.964081 497.178955,84.679672 
	C497.183075,83.857002 498.051331,83.038643 498.895813,82.063255 
z"/>
<path fill="#000000" opacity="1.000000" stroke="none" 
	d="
M320.177734,89.983154 
	C329.215454,85.413391 338.292664,86.687759 347.275513,88.373634 
	C348.417908,88.588058 349.870575,91.321877 349.854645,92.874878 
	C349.728546,105.138336 349.392181,117.404083 348.777863,129.651947 
	C348.708252,131.039886 346.590332,133.385880 345.297913,133.474457 
	C338.436157,133.944778 331.459137,134.504288 324.668793,133.735855 
	C318.185486,133.002167 314.088104,128.119629 313.074585,121.822548 
	C312.069824,115.579971 311.913086,109.140587 312.017731,102.797974 
	C312.108704,97.285034 315.482483,93.286163 320.177734,89.983154 
z"/>
<path fill="#000000" opacity="1.000000" stroke="none" 
	d="
M694.959839,99.149857 
	C695.195068,100.987396 695.394653,102.432793 695.673950,104.455353 
	C682.484802,104.455353 669.656677,104.455353 656.828674,104.455353 
	C656.649292,93.554276 661.391602,88.160973 673.850830,86.359215 
	C682.080750,85.169052 692.437744,88.337250 694.959839,99.149857 
z"/>
<path fill="#000000" opacity="1.000000" stroke="none" 
	d="
M194.810608,131.930420 
	C187.316788,136.394073 179.737976,135.731735 172.290192,133.469147 
	C166.627136,131.748734 163.710190,126.899734 163.286865,121.418732 
	C162.692673,113.725410 162.057831,105.747299 163.436920,98.258682 
	C165.383347,87.689499 174.454453,84.665138 187.330322,86.470451 
	C197.667175,87.919769 202.008774,94.020142 201.990921,104.552979 
	C201.983292,109.050697 202.180603,113.558998 201.935776,118.043442 
	C201.637039,123.515282 199.980392,128.475845 194.810608,131.930420 
z"/>
<path fill="#000000" opacity="1.000000" stroke="none" 
	d="
M440.188477,112.150917 
	C432.326630,117.248573 424.147949,118.607841 415.816193,115.092911 
	C413.074951,113.936455 410.174683,111.178238 409.099274,108.459412 
	C406.787964,102.615822 406.855530,92.739723 411.886414,88.844269 
	C417.297272,84.654579 423.869690,84.517624 430.431946,85.324135 
	C443.792816,86.966217 447.182098,101.364532 440.188477,112.150917 
z"/>
</svg>