<svg width="83" height="67" xmlns="http://www.w3.org/2000/svg" xmlns:xlink="http://www.w3.org/1999/xlink" xml:space="preserve" overflow="hidden"><defs><clipPath id="clip0"><rect x="153" y="250" width="83" height="67"/></clipPath><clipPath id="clip1"><rect x="154" y="251" width="82" height="66"/></clipPath><clipPath id="clip2"><rect x="154" y="251" width="82" height="66"/></clipPath><clipPath id="clip3"><rect x="154" y="251" width="82" height="66"/></clipPath></defs><g clip-path="url(#clip0)" transform="translate(-153 -250)"><g clip-path="url(#clip1)"><g clip-path="url(#clip2)"><g clip-path="url(#clip3)"><path d="M40.9872 41C48.3428 41 54.1969 35.0345 54.1969 27.675 54.1969 20.3155 48.2339 14.35 40.9872 14.35 33.6315 14.35 27.7775 20.3155 27.7775 27.675 27.6622 35.0294 33.6328 41 40.9872 41ZM47.3934 45.1 34.6066 45.1C24.5487 45.1 16.4 52.7491 16.4 62.1791 16.4 64.0753 18.0272 65.6 20.0387 65.6L61.9613 65.6C63.9728 65.6 65.6 64.0753 65.6 62.1791 65.6 52.7491 57.4512 45.1 47.3934 45.1ZM65.6 20.5C71.2606 20.5 75.85 15.9106 75.85 10.25 75.85 4.58944 71.2631 0 65.6 0 59.9394 0 55.35 4.58944 55.35 10.25 55.35 15.9106 59.9369 20.5 65.6 20.5ZM23.5622 27.675C23.5622 26.9768 23.688 26.313 23.7683 25.6365 22.3706 24.8691 20.8331 24.6 19.2059 24.6L11.2852 24.6C5.05325 24.6 0 29.9556 0 36.5541 0 37.8737 1.01052 38.95 2.25756 38.95L27.8185 38.95C25.2022 35.9006 23.5622 31.9928 23.5622 27.675ZM16.4 20.5C22.0606 20.5 26.65 15.9106 26.65 10.25 26.65 4.58944 22.0631 0 16.4 0 10.7394 0 6.15 4.58944 6.15 10.25 6.15 15.9106 10.7394 20.5 16.4 20.5ZM70.7122 24.6 62.7889 24.6C61.1489 24.6 59.6012 24.9891 58.1944 25.6558 58.2712 26.3297 58.3994 26.9831 58.3994 27.675 58.3994 31.9941 56.7619 35.9019 54.1507 38.95L79.7373 38.95C80.9878 38.95 82 37.8737 82 36.5541 82 29.9556 76.9519 24.6 70.7122 24.6Z" fill="#6449D5" fill-rule="nonzero" fill-opacity="1" transform="matrix(1 0 0 1.0061 154 251)"/></g></g></g></g></svg>