
<svg version="1.1" data-dubreuil="dubreuil" xmlns="http://www.w3.org/2000/svg" xmlns:xlink="http://www.w3.org/1999/xlink" x="0px" y="0px"
	 viewBox="0 0 220 150" style="enable-background:new 0 0 220 150;" xml:space="preserve">
<path fill="#e2e2e2" class="st0" d="M161.8,107c7-10.1,11.1-22.3,11.1-35.6c0-34.5-28-62.5-62.5-62.5s-62.5,28-62.5,62.5C47.9,84.6,52,96.9,59,107
	H161.8z"/>
<path fill="#071EEF" d="M87.2,92.8c0,0-13.3-35.8-55.1-40.9c25.1-5.4,43.6,1.4,61.4,21.9c18.8-20.1,45.6-23.2,61.6-20.9
	C118.3,61.7,112.9,78.7,87.2,92.8z"/>
<g>
	<path fill="#003381" d="M19.1,105.9L19.1,105.9c-0.9,1.1-2.3,1.4-3.8,1.4c-3.3,0-5.3-1.9-5.3-4.6c0-2.3,1.9-4.6,5.3-4.6
		c2.2,0,4.2,0.9,4.9,2.6l-1.4,0.3c-0.5-1.1-1.6-1.9-3.5-1.9c-2.3,0-3.8,1.6-3.8,3.5s1.2,3.7,3.8,3.7c2.2,0,3.7-0.9,3.7-2.8h-3.6v-1
		h4.9v4.7h-1.2V105.9z"/>
	<path fill="#003381" d="M22.4,98.4h4.8c1.7,0,3.4,0.5,3.4,2.5c0,1.1-0.6,2.2-2.4,2.5l2.9,3.8h-1.7l-2.8-3.7h-2.7v3.7h-1.4v-8.8H22.4z
		 M23.7,102.4h3.1c1.3,0,2.2-0.3,2.2-1.5s-0.9-1.5-2.2-1.5h-3.1V102.4z"/>
	<path fill="#003381" d="M37.2,98.1c3.3,0,5.3,1.9,5.3,4.6s-2,4.6-5.3,4.6s-5.3-1.9-5.3-4.6C31.9,100,33.9,98.1,37.2,98.1z M37.2,106.4
		c2.6,0,3.8-1.7,3.8-3.7c0-1.9-1.2-3.7-3.8-3.7s-3.8,1.7-3.8,3.7C33.4,104.7,34.6,106.4,37.2,106.4z"/>
	<path fill="#003381" d="M52.2,104.2c0,2-1.5,3.1-4,3.1s-4-1.1-4-3.1v-5.9h1.4v5.7c0,1.5,0.8,2.3,2.6,2.3s2.6-0.8,2.6-2.3v-5.7h1.4
		V104.2z"/>
	<path fill="#003381" d="M54.3,98.4h5.3c1.3,0,2.7,0.6,2.7,2.5c0,1.7-1.5,2.5-2.9,2.5h-3.8v3.7h-1.4v-8.7H54.3z M55.7,102.4h3.2
		c1.2,0,2-0.4,2-1.5c0-1-0.5-1.5-1.8-1.5h-3.4V102.4z"/>
	<path fill="#003381" d="M63.6,98.4H71v1h-6v2.7h5.2v1H65v3h6.1v1h-7.5V98.4z"/>
</g>
<g>
	<path fill="#003381" d="M10.5,111.2h10.3c10.1,0,14.4,6.2,14.4,14.6c0,9.5-4.6,14.6-13.3,14.6H10.5V111.2z M16,135.3h5
		c5.4,0,8.4-2,8.4-9.5c0-5.7-2.5-9.5-8.5-9.5H16V135.3z"/>
	<path fill="#003381" d="M63.5,131.4c0,5.9-4.7,9.7-11.8,9.7s-11.8-3.8-11.8-9.7v-20.2h5.5V130c0,3.6,1.5,5.8,6.3,5.8s6.3-2.3,6.3-5.8
		v-18.8h5.5V131.4z"/>
	<path fill="#003381" d="M69.7,111.2h13.7c4.8,0,8.7,2.4,8.7,7.3c0,3.2-1.8,5.3-5,5.9v0.1c4,0.4,6.3,3.7,6.3,7.2
		c0,7.3-5.2,8.7-11.3,8.7H69.7V111.2z M75.2,122.9h6.5c2.4,0,4.6-0.9,4.6-3.7c0-2.2-1.4-3.6-4.6-3.6h-6.5V122.9z M75.2,135.5h7.1
		c3.3,0,5.3-1,5.3-4.1c0-3.3-2.1-4.5-5.4-4.5h-7.1L75.2,135.5L75.2,135.5z"/>
	<path fill="#003381" d="M98.2,111.2h12.2c6.2,0,9.8,3.7,9.8,8.8c0,6.6-4.4,8.1-5.8,8.6l6.5,11.8h-6.4l-5.7-10.7h-5.2v10.7h-5.5
		L98.2,111.2L98.2,111.2z M103.7,124.8h6c2.8,0,4.8-1.6,4.8-4.4c0-2.7-1.8-4.4-5.6-4.4h-5.2C103.7,116,103.7,124.8,103.7,124.8z"/>
	<path fill="#003381" d="M125.1,111.2h20.7v5.1h-15.2v6.6h13.9v4.8h-13.9v7.5h16.2v5.1h-21.7C125.1,140.3,125.1,111.2,125.1,111.2z"/>
	<path fill="#003381" d="M174.5,131.4c0,5.9-4.7,9.7-11.8,9.7s-11.8-3.8-11.8-9.7v-20.2h5.5V130c0,3.6,1.5,5.8,6.3,5.8s6.3-2.3,6.3-5.8
		v-18.8h5.5V131.4z"/>
	<path fill="#003381" d="M180.8,111.2h5.5v29.2h-5.5V111.2z"/>
	<path fill="#003381" d="M192.7,111.2h5.5v24.1H210v5.1h-17.3V111.2z"/>
</g>
</svg>
