<svg version="1.0" xmlns="http://www.w3.org/2000/svg" width="391.000000pt" height="129.000000pt" viewBox="0 0 391.000000 129.000000" preserveAspectRatio="xMidYMid meet" class="h-9 object-contain w-full md:h-10" ><g transform="translate(0.000000,129.000000) scale(0.100000,-0.100000)" fill="#000000" stroke="none"><path d="M610 900 l0 -360 91 0 c90 0 91 0 85 23 -3 12 -6 174 -6 360 l0 337
-85 0 -85 0 0 -360z"></path><path d="M2050 900 l0 -360 210 0 c115 0 232 5 259 11 98 21 171 102 171 189
0 70 -40 124 -115 156 l-40 16 31 17 c76 41 104 80 104 144 0 79 -64 152 -155
176 -23 6 -132 11 -252 11 l-213 0 0 -360z m405 210 c30 -29 33 -74 5 -110
-17 -23 -26 -25 -119 -28 l-101 -4 0 87 0 87 95 -4 c82 -3 98 -7 120 -28z m-5
-275 c55 -28 66 -85 26 -132 -23 -27 -28 -28 -130 -31 l-106 -4 0 91 0 91 90
0 c62 0 100 -5 120 -15z"></path><path d="M206 1063 c-29 -12 -41 -13 -44 -5 -2 8 -31 12 -83 12 l-79 0 0 -355
0 -355 90 0 90 0 0 99 0 99 47 -14 c104 -32 203 -8 260 61 41 50 58 112 58
215 0 112 -34 187 -103 231 -41 26 -55 29 -121 28 -46 0 -91 -6 -115 -16z
m131 -132 c19 -29 23 -47 23 -118 0 -49 -6 -97 -14 -118 -25 -59 -84 -73 -133
-31 -28 24 -28 25 -28 141 0 116 0 117 29 141 42 37 93 30 123 -15z"></path><path d="M970 1064 c-165 -71 -173 -413 -11 -507 45 -27 136 -33 191 -12 77
28 80 29 80 11 0 -13 13 -16 86 -16 74 0 85 2 80 16 -3 9 -6 128 -6 265 l0
249 -79 0 c-52 0 -81 -4 -83 -12 -3 -8 -16 -7 -46 5 -53 21 -164 22 -212 1z
m207 -118 c27 -23 28 -28 31 -135 l4 -111 -30 -30 c-49 -49 -112 -37 -138 25
-17 41 -19 187 -3 218 33 63 86 76 136 33z"></path><path d="M2855 1066 c-41 -19 -91 -73 -111 -121 -20 -48 -23 -190 -5 -252 18
-67 69 -125 126 -146 59 -22 143 -20 194 6 42 21 51 21 51 2 0 -12 16 -15 86
-15 74 0 85 2 80 16 -3 9 -6 128 -6 265 l0 249 -73 0 c-41 0 -78 -5 -84 -11
-9 -9 -22 -8 -53 5 -49 19 -163 21 -205 2z m196 -109 c30 -23 40 -57 42 -150
2 -103 -9 -137 -50 -156 -85 -39 -133 18 -133 161 0 108 28 158 89 158 20 0
43 -6 52 -13z"></path><path d="M3492 1062 c-110 -39 -172 -134 -172 -263 0 -131 63 -218 183 -254
104 -31 235 -9 306 51 26 21 71 100 71 122 0 15 -154 24 -159 10 -11 -33 -60
-68 -95 -68 -80 0 -116 43 -116 139 0 107 40 163 115 163 44 0 83 -24 91 -57
6 -25 7 -26 83 -19 42 4 78 8 80 10 8 7 -24 69 -53 102 -48 54 -99 75 -196 79
-65 3 -98 -1 -138 -15z"></path><path d="M1450 1065 c0 -4 140 -350 185 -457 24 -56 24 -57 5 -80 -16 -20 -27
-23 -79 -21 l-61 1 0 -75 0 -75 94 4 c77 2 100 7 123 24 39 29 67 73 97 152
31 82 116 314 162 440 l33 92 -74 0 -74 0 -19 -52 c-11 -29 -32 -90 -48 -135
-16 -46 -31 -83 -34 -83 -3 0 -27 61 -54 135 l-48 135 -104 0 c-57 0 -104 -2
-104 -5z"></path><path d="M189 226 c-1 0 -3 -49 -4 -108 -3 -88 -1 -108 11 -108 10 0 14 12 14
40 0 39 1 40 35 40 25 0 44 8 60 25 51 50 19 105 -63 110 -29 1 -53 2 -53 1z
m104 -47 c14 -22 3 -47 -27 -60 -38 -18 -56 -5 -56 39 0 21 2 41 5 44 10 10
68 -7 78 -23z"></path><path d="M400 120 c0 -91 3 -110 15 -110 11 0 15 12 15 45 0 59 20 59 62 0 18
-25 40 -45 50 -45 15 0 12 8 -18 50 -33 45 -34 51 -17 57 24 9 33 23 33 54 0
36 -15 46 -82 53 l-58 7 0 -111z m83 81 c13 -5 27 -17 30 -25 9 -22 -27 -56
-58 -56 -22 0 -25 4 -25 38 0 53 8 60 53 43z"></path><path d="M630 119 l0 -109 60 0 c33 0 60 4 60 10 0 6 -20 10 -45 10 l-45 0 0
39 c0 40 0 40 43 43 54 4 50 23 -6 23 -43 0 -42 -1 -38 50 1 11 13 15 46 15
33 0 45 4 45 15 0 11 -13 14 -60 14 l-60 -1 0 -109z"></path><path d="M841 211 c-12 -12 -21 -25 -21 -30 0 -28 22 -60 47 -69 46 -15 65
-39 52 -63 -8 -16 -19 -20 -49 -18 -43 3 -62 -7 -40 -21 48 -30 123 11 118 64
-2 26 -11 35 -50 56 -27 14 -48 32 -48 41 0 27 27 42 61 35 22 -4 29 -2 27 7
-8 22 -75 20 -97 -2z"></path><path d="M1037 212 c-28 -31 -22 -70 14 -90 59 -32 72 -47 64 -71 -6 -20 -12
-22 -51 -19 -44 3 -62 -13 -28 -26 47 -18 114 18 114 62 0 20 -39 62 -58 62
-7 0 -21 9 -32 20 -17 17 -18 24 -9 41 9 18 18 20 50 16 39 -5 53 5 23 17 -30
12 -71 6 -87 -12z"></path><path d="M1220 120 l0 -110 65 0 c37 0 65 4 65 10 0 6 -22 10 -50 10 l-50 0 0
40 0 40 45 0 c31 0 45 4 45 13 0 10 -13 13 -42 13 -41 -1 -43 0 -46 32 -3 32
-3 32 42 32 30 0 46 4 46 13 0 8 -20 13 -60 14 l-60 3 0 -110z"></path></g></svg>