  <svg
    xmlns="http://www.w3.org/2000/svg"
    version="1.1"
    viewBox="-2.79310845 -2.79310845 505.5862169 98.6898319"
    alt="Club Med"
  >
    <path
      style="fill:#00558a;fill-opacity:1"
      d="m 500,72.1 -9.6,-9.6 -9.6,9.6 9.6,9.6 z M 496.1,2.9 c -0.5,-2.3 -5.7,1 -16.6,10.9 4.4,4.9 6.5,2.1 10.1,0.8 2.8,5.4 3.9,29.8 -14.5,37 0.5,-24.6 0.8,-50.8 0.8,-50.8 0,-0.8 -0.5,-0.8 -1,-0.8 -4.9,0.8 -14,9.6 -21,17.1 3.9,6.2 8.5,0.5 12.4,-1 0,1 -0.8,19.2 -0.5,37.6 C 446.9,55.3 450,16.2 451,11.2 c 0.5,-4.1 -12.2,4.9 -18.4,10.6 2.1,3.6 4.7,2.8 8.3,1.6 -1.3,17.4 10.9,33.4 25.1,32.9 0.5,17.9 2.3,35.5 7.5,36.8 0.8,0.3 1.3,-18.1 1.6,-38.6 34,-10.6 21,-51.6 21,-51.6 z M 80.8,66.2 V 14.9 H 67.4 v 51.8 c 0,11.1 5.4,17.1 18.4,17.1 H 94 V 74 H 88.6 C 82.9,73.9 80.8,72.1 80.8,66.2 Z M 282.4,15.6 262.7,67.7 243,15.6 h -19.2 v 68.1 h 13.5 V 43.1 c 0,-2.6 0,-7 -0.3,-9.8 h 0.5 l 18.9,50.5 h 12.4 L 288,33.3 h 0.3 c -0.3,2.8 -0.3,7.3 -0.3,9.8 v 40.7 h 13.5 V 15.6 Z m -161.9,69 c 16.8,0 25.1,-6 25.1,-22 V 31.7 h -13.5 v 30.6 c 0,9.3 -5.7,12.7 -11.9,12.7 -6.2,0 -11.9,-3.4 -11.9,-12.7 V 31.7 H 94.8 v 30.8 c 0.3,16.1 8.8,22.1 25.7,22.1 z M 166.1,62.3 V 53 c 0,-9.3 7.3,-12.7 13.5,-12.7 6.2,0 13.5,3.4 13.5,12.7 v 9.3 c 0,9.3 -7.3,12.7 -13.5,12.7 -6.3,0.2 -13.5,-3.4 -13.5,-12.7 z m 39.6,-9.1 c 0,-12.7 -7.3,-22.3 -24.4,-22.3 -5.2,0 -10.6,1.3 -15,3.4 V 14.9 h -13.5 v 47.4 c 0,16.1 9.6,22 26.4,22 16.8,0 26.4,-6.7 26.4,-22.8 0.1,0 0.1,-8.3 0.1,-8.3 z m 199.7,-0.3 v 9.3 c 0,9.3 -7.3,12.7 -13.5,12.7 -6.2,0 -13.5,-3.4 -13.5,-12.7 v -9.3 c 0,-9.3 7.3,-12.7 13.5,-12.7 6.3,0.1 13.5,3.7 13.5,12.7 z m -15,-22 c -17.1,0 -24.4,9.6 -24.4,22.3 v 8.3 c 0,16.1 9.6,22.8 26.4,22.8 16.8,0 26.4,-6 26.4,-22 V 14.9 h -13.2 v 19.4 c -4.6,-2.1 -10,-3.4 -15.2,-3.4 z m -69.7,22.3 c 0,-9.6 7.3,-13.2 13.5,-13.2 6.2,0 13.5,3.6 13.5,13.2 z M 351,70 c -5.7,3.9 -9.8,5.2 -16.3,5.2 -7.8,0 -14.2,-4.4 -14.2,-12.7 v -1 h 39.9 V 57.1 C 360.4,41 350.8,30.9 334,30.9 317.2,30.9 307.5,41 307.5,57.1 v 2.1 c 0,15.5 9.3,25.4 27.2,25.4 9.1,0 16.8,-1.8 24.6,-8 z M 31.9,84.6 c 17.6,0 28.5,-9.1 30.8,-21.2 H 48.4 C 46.1,71.4 40.1,75.3 31.6,75.3 18.4,75.3 13.5,66.5 13.5,53 v -6.7 c 0,-15 6.5,-22 18.1,-22 8.3,0 14.2,3.6 16.8,11.9 H 62.6 C 60,24 49.4,15 31.8,15 11.7,14.9 0,27 0,46 v 9.3 c 0,17.9 11.1,29.3 31.9,29.3 z"
    />
  </svg>