<?xml version="1.0" encoding="UTF-8" standalone="no"?>
<!-- Generator: Adobe Illustrator 26.3.1, SVG Export Plug-In . SVG Version: 6.00 Build 0)  -->

<svg
   version="1.1"
   id="Calque_1"
   x="0px"
   y="0px"
   viewBox="0 0 686.01822 799.99997"
   xml:space="preserve"
   sodipodi:docname="Logo Olympique Lyonnais - 2022.svg"
   width="686.01825"
   height="800"
   inkscape:version="1.2 (dc2aeda, 2022-05-15)"
   xmlns:inkscape="http://www.inkscape.org/namespaces/inkscape"
   xmlns:sodipodi="http://sodipodi.sourceforge.net/DTD/sodipodi-0.dtd"
   xmlns="http://www.w3.org/2000/svg"
   xmlns:svg="http://www.w3.org/2000/svg"><defs
   id="defs152" /><sodipodi:namedview
   id="namedview150"
   pagecolor="#ffffff"
   bordercolor="#666666"
   borderopacity="1.0"
   inkscape:showpageshadow="2"
   inkscape:pageopacity="0.0"
   inkscape:pagecheckerboard="0"
   inkscape:deskcolor="#d1d1d1"
   showgrid="false"
   inkscape:zoom="1.0605529"
   inkscape:cx="61.288787"
   inkscape:cy="398.37711"
   inkscape:window-width="1440"
   inkscape:window-height="745"
   inkscape:window-x="0"
   inkscape:window-y="25"
   inkscape:window-maximized="0"
   inkscape:current-layer="Calque_1" />
<g
   id="g2207"
   transform="matrix(0.52022343,0,0,0.52022343,0.02580308,0)"><path
     id="path136"
     style="fill:#c88c28;fill-opacity:1;stroke:none"
     d="M 0.05000937,0 -0.0496,1101.0996 c 0,74.6999 20.899651,133.4008 62.099609,174.3008 39.699961,39.4 96.100471,59.6988 172.400391,61.7988 182.19982,5.1 290.80087,45.5017 374.80078,139.6016 l 50.04883,61 50.05078,-61 c 83.99992,-94.0999 192.59901,-134.5016 374.79881,-139.6016 76.2999,-2.1 132.7004,-22.3988 172.4004,-61.7988 41.2,-40.9 62.0996,-99.6009 62.0996,-174.3008 L 1318.55,0 Z"
     sodipodi:nodetypes="cccccccccccc" /><path
     id="path1834"
     style="fill:#ffffff;stroke:none"
     d="m 32.849799,32.800781 0.09961,1068.298819 c 0,65.6999 17.600425,116.5 52.400391,151 34.49996,34.3 85.09927,50.5008 150.19921,52.3008 187.69981,5.3 306.00087,46.8997 398.80078,151.0996 l 24.94922,30.5996 24.95117,-30.5996 c 92.79991,-104.1999 211.09902,-145.7996 398.79882,-151.0996 65.0999,-1.8 115.7012,-18.0008 150.2012,-52.3008 34.7999,-34.5 52.3984,-85.3001 52.3984,-151 l 0.1016,-1068.298819 z"
     sodipodi:nodetypes="cccccccccccc" /></g>
<g
   id="g2203"
   transform="matrix(0.52022343,0,0,0.52022343,0.02580308,0)"><g
     id="g2166"><path
       d="M 1253.3,65.3 H 65.4 l -0.1,422.5 h 1188 z"
       id="path140"
       style="fill:#f40043;fill-opacity:1"
       sodipodi:nodetypes="ccccc" /><g
       id="g1805"
       transform="translate(-0.09961)"><path
         d="m 1190.1,241.1 h -85.3 V 117.6 h 84.7 V 139 H 1129 v 29 h 53.3 v 21.5 H 1129 v 30.4 h 61 v 21.2 z"
         id="path1484"
         style="fill:#ffffff" /><path
         d="m 1138.5,437.1 c -24.2,0 -42.2,-6.4 -56.7,-17.6 l 14.3,-22.8 c 13.1,10.5 27.5,15.5 42.8,15.5 13,0 22.8,-5.6 22.8,-17.4 0,-11.8 -8.3,-16.8 -30,-22.8 -24.6,-6.8 -43.9,-16.4 -43.9,-41.8 0,-25.4 21.1,-42.4 52.4,-42.4 21.3,0 37.2,6 48.6,14.9 l -13.1,21.5 c -9.9,-7.3 -21.1,-11.6 -35.8,-11.6 -13.2,0 -23.2,5 -23.2,15.7 0,10.7 9.5,13.9 29.6,19.9 24.6,7.2 43.7,16.8 43.7,44.7 0,27.9 -20.4,44.2 -51.5,44.2"
         id="path1482"
         style="fill:#ffffff" /><path
         d="m 1074.8,188 c 0,35.7 -21.6,54.7 -54.3,54.7 -32.7,0 -54.3,-19 -54.3,-54.7 v -70.5 h 24.3 V 190 c 0,16.7 9.8,30.8 30.2,30.8 20.4,0 30.1,-14.1 30.1,-30.8 v -72.4 h 24.1 V 188 Z"
         id="path1480"
         style="fill:#ffffff" /><path
         d="m 1057,435.3 h -28.6 V 289.7 h 28.6 z"
         id="path1478"
         style="fill:#ffffff" /><path
         id="path1476"
         d="M 926.80078,289.80078 863,435.30078 h 30.30078 l 11.59961,-28.10156 h 62.29883 l 11.60156,28.10156 h 30.09962 l -63.30079,-145.5 z m 9.29883,40.5 L 958,382.90039 h -44 z"
         style="fill:#ffffff" /><path
         d="m 844,436.9 h -16.2 l -86.7,-97.3 v 95.6 h -28 v -147 h 16.2 l 86.5,97.1 V 289.7 H 844 Z"
         id="path1474"
         style="fill:#ffffff" /><path
         id="path1472"
         d="m 649.80078,117.59961 v 123.5 H 674 v -35.5 l 18.40039,0.0996 c 30.59997,-0.2 51.5,-16.09847 51.5,-43.39844 0,-27.29997 -20.60003,-44.70117 -50.5,-44.70117 z M 674,139 h 18.09961 c 16.89998,0 26.70117,10.60079 26.70117,22.80078 0,12.19999 -9.50119,22.19922 -26.70117,22.19922 H 674 Z"
         style="fill:#ffffff" /><path
         d="m 675.7,436.9 h -16.2 l -86.7,-97.3 v 95.6 h -28 v -147 H 561 l 86.5,97.1 v -95.6 h 28.2 z"
         id="path1470"
         style="fill:#ffffff" /><path
         id="path1468"
         d="m 440,287.90039 c -44.49996,0 -77,32.90043 -77,74.90039 0,41.99996 32.50004,74.29883 77,74.29883 44.09996,0 76.19922,-31.29887 76.19922,-74.29883 0,-42.99996 -31.69926,-74.90039 -76.19922,-74.90039 z m 0,26.5 c 26.89997,0 47,20.90042 47,48.40039 0,27.49997 -19.50003,48 -47,48 -27.49997,0 -47.80078,-20.50003 -47.80078,-48 0,-27.49997 20.30081,-48.40039 47.80078,-48.40039 z"
         style="fill:#ffffff" /><path
         d="m 304.6,378.5 v 56.7 H 276 v -56.7 l -53.4,-88.8 h 34.1 l 34.8,60.6 34.8,-60.6 h 32.3 z"
         id="path1466"
         style="fill:#ffffff" /><path
         d="m 236.7,435.3 h -99 V 289.7 h 28.6 v 120.5 h 70.4 z"
         id="path1464"
         style="fill:#ffffff" /><path
         id="path1462"
         d="m 194.09961,116 c -37.79996,0 -65.40039,27.89965 -65.40039,63.59961 0,35.69996 27.90043,63.09961 65.40039,63.09961 37.49996,0 64.70117,-26.59965 64.70117,-63.09961 C 258.80078,143.09965 231.59957,116 194.09961,116 Z m 0,22.5 C 216.99959,138.5 234,156.19963 234,179.59961 c 0,23.39998 -17.00041,40.80078 -39.90039,40.80078 -23.39998,0 -40.59961,-17.5008 -40.59961,-40.80078 0,-23.29998 17.69963,-41.09961 40.59961,-41.09961 z"
         style="fill:#ffffff" /><path
         d="m 283,117.5 h 24.2 V 219.8 H 367 v 21.3 h -84 z"
         id="path1460"
         style="fill:#ffffff" /><path
         d="m 384.1,117.5 29.5,51.5 29.5,-51.5 h 27.4 L 424.7,193 v 48.2 H 400.4 V 193 L 355,117.6 h 29.1 z"
         id="path1458"
         style="fill:#ffffff" /><path
         d="m 491,117.5 h 15.3 l 46.8,81.2 47.8,-81.2 H 616 l 3.7,123.6 h -23.9 l -1,-74.2 -34.1,59.8 h -15.1 l -33.4,-59.8 -1.2,74.2 h -23.7 z"
         id="path1456"
         style="fill:#ffffff" /><path
         d="m 765.2,117.5 h 24.2 v 123.6 h -24.3 z"
         id="path1454"
         style="fill:#ffffff" /><path
         id="path1452"
         d="M 878.90039,116 C 841.10043,116 813.5,143.89965 813.5,179.59961 c 0,35.69996 27.60043,63.09961 65.40039,63.09961 5.6,0 10.90001,-0.49922 16,-1.69922 l 31,28.09961 15,-17.40039 -23,-20.89844 c 15.99998,-11.09999 25.69922,-29.60119 25.69922,-51.20117 C 943.59961,143.09965 916.40035,116 878.90039,116 Z M 879,138.5 c 22.89998,0 39.90039,17.89963 39.90039,41.09961 0,23.19998 -17.00041,40.80078 -39.90039,40.80078 -23.39998,0 -40.59961,-17.6008 -40.59961,-40.80078 C 838.40039,156.39963 856.10002,138.5 879,138.5 Z"
         style="fill:#ffffff" /></g></g><g
     id="g2174"><path
       id="path142"
       style="fill:#0f23aa;fill-opacity:1;stroke:none"
       d="m 65.349799,520.30078 v 580.79882 c 0,114.2999 57.400101,166.5996 169.999991,170.0996 196.0998,6.3 330.34931,50.7009 423.94922,158.3008 93.59991,-107.5999 227.85137,-152.0008 423.95119,-158.3008 112.5999,-3.5 170,-55.7997 170,-170.0996 V 520.30078 Z"
       sodipodi:nodetypes="cscccscc" /><path
       d="M 1143.1,1160.8 H 811 V 610.2 h 160.3 v 411.1 h 171.8 z"
       id="path1986"
       style="fill:#ffffff" /><path
       d="m 442.5,1173.9 c -159,0 -288.4,-129.4 -288.4,-288.4 0,-159 129.4,-288.4 288.4,-288.4 159,0 288.4,129.4 288.4,288.4 0,159 -129.4,288.4 -288.4,288.4"
       id="path1984"
       style="fill:#ffffff" /><g
       id="g1990"><path
         class="st1"
         d="m 384.9,770.5 c 11.9,-3.6 21.9,-8.7 33.6,-4.8 -4.3,-8.7 -14.4,-12.7 -23.6,-10.1 -4.8,1.3 -9.1,3.5 -13,4.8 -11.9,5.3 -23.1,5.3 -35.3,1.7 9,11.1 25.7,12.7 38.3,8.4"
         id="path144"
         style="fill:#c88c28;fill-opacity:1" /><path
         class="st1"
         d="m 628.5,806.3 c -16.6,33.2 -82.1,27.1 -78.2,65 l -4.8,-8.7 c -5.6,-10.5 -1.3,-23.6 9.2,-29.2 l 60.2,-31.8 c 19.2,-10.1 26.2,-35.4 13.5,-54.2 -10.1,-14.8 -29.3,-20 -45.9,-13.9 0,0 -17.5,7.8 -24.9,-12.7 -8.7,9.2 -4.3,21.8 1.3,25.4 -5.6,0.8 -16.6,8.6 -17,24 12.7,3.5 26.6,-1.3 29.2,-5.3 -0.8,4.8 7.4,14.8 19.3,12.7 -10.1,-10.5 -7.4,-22.3 0,-25.3 6.9,-2.6 15.7,-0.5 20.5,5.6 6.6,8.7 3.5,21 -5.8,25.7 l -60.2,31.8 c -20.5,10.5 -28.4,36.3 -17.4,56.8 l 27.1,51.1 c 3,5.6 2.2,13.1 -2.6,17.5 -6.1,6.5 -16.6,5.2 -21.9,-2.3 -16.5,-24 -30.5,-49.7 -41.4,-77.2 9.2,3.5 16.2,-2.6 16.2,-2.6 0,0 -10.5,-7.4 -4.8,-22.6 3,-9.2 4,-17.1 2.6,-24.5 2.6,2.3 6.6,4 11.4,3.6 -4,-18 0.8,-18.8 2.2,-34.5 0.3,-7.1 -1.3,-12.3 -3.5,-16.2 3.8,0.4 8.3,0 12.2,-4 -17.1,-7.1 -14,-31 -34.5,-33.7 7.8,-3.5 8.3,-10.4 8.3,-11.7 -17.5,1.3 -30.2,-11.4 -49,-11.4 -20.5,0 -26.1,5.3 -33.5,5.3 -10.5,0 -15.7,5.2 -14.4,10.4 l -17.5,4.8 c -2.6,4.8 0,8.7 2.2,10.1 0,0 -3,2.6 -1.8,7 1.3,4.9 4.4,13.5 4.4,13.5 l 3.5,-3.5 c 1.8,-1.7 4.3,-3 7.4,-3.5 l 5.6,-0.5 c 7.1,-0.8 13.5,2.6 17.1,9.2 l 7.4,14.8 h -37.6 c 0,0 2.6,8.3 3.5,10.9 1.8,4 5.3,5.8 11.9,5.8 7,0 10.9,-1 10.9,-1 v 10.1 c 0,5.6 -4.4,13 -19.6,8.7 l -31.9,-9.2 c -18.8,-4.8 -28,-13.5 -40.7,-29.2 l -3.8,-6.1 c -3.1,-4 -4.4,-8.7 -4,-13.5 0.4,-4 0.4,-9.1 -0.5,-14 -1.7,-11.7 -10.4,-15.7 -12.7,-16.2 0.5,1.3 4.4,11.9 0,21.4 -3.5,-10.4 -10.4,-18.3 -26.6,-19.6 0,0 11.9,10.1 12.2,23.1 -14.4,-9.6 -31.9,-3 -31.9,-3 0,0 27.9,5.6 27.9,27.9 0,8.3 -4.3,19.3 -17.4,26.7 0,0 13.9,3 23.1,-2.3 2.6,-1.7 6.1,-1.7 8.7,0.5 9.1,9.2 29.2,28.9 32.2,35 6.6,13.1 -2.2,23.6 -2.2,23.6 0,0 14,-1 18.8,-9.2 0.8,-1.3 2.6,-1.8 4,-1.3 l 26.1,15.7 -17.6,11.8 c -15.7,10.4 -34,15.7 -52.5,15.7 h -17.8 c -5.6,0 -11.4,-1.3 -16.2,-4 -4.8,-2.2 -12.2,-5.3 -19.6,-5.3 -15.7,0 -20.5,7.9 -20.5,7.9 0,0 15.7,-0.8 21.8,5.3 -9.6,-1.3 -27.1,3 -28.9,18.8 0,0 11.4,-6.6 22.3,-4.9 -7.8,3.6 -16.5,14 -6.1,30.7 0,0 1,-17.5 22.8,-17.5 21.8,0 18.8,19.2 18.8,19.2 0,0 9.6,-2.2 11.7,-14.4 0.5,-2.6 2.2,-4.8 4.8,-4.8 h 45.9 c 1.8,0 3,1.3 3,2.6 2.3,9.6 15,12.2 15,12.2 0,0 -6.2,-11.4 3.5,-15.7 l 33.5,-14.5 15.3,20.1 c -25.3,14.4 -61.1,30.5 -70.8,34.5 -20,7.9 -25.8,7.9 -34.5,7.4 0,0 10.5,9.6 30.2,7.4 1.8,0 3.5,-0.5 5.6,-1.3 1.8,-0.8 4,0 4.8,1.8 3.1,6.1 7.9,15.7 9.2,19.6 3.1,8.3 -2.6,10.4 -8.7,13.1 -8.3,4 -17,7.9 -31,12.7 -21.3,-12.2 -37.5,-0.8 -37.5,-0.8 0,0 12.6,2.2 18.7,9.6 -12.2,-1 -25.3,6.1 -29.7,20 3.1,-1.3 16.6,-6.9 28.4,-5.2 -3.5,3 -8.3,9.6 -8.3,18.3 0.5,4.3 1.3,6.5 1.3,6.5 0,0 10.5,-16.5 29.7,-16.5 8.3,0 12.2,4.3 12.2,8.7 0,3.5 -2.6,7.8 -2.6,7.8 0,0 25.4,-2.2 17.1,-24.8 l 46.2,-16.6 c 2.2,-0.8 4.8,-0.5 6.1,1.3 3.1,2.6 8.7,6.1 16.6,5.3 l -13.5,-30.5 c -3.6,-7.9 0.8,-16.6 9.9,-19.3 l 24.1,-7.8 c 0,0 6.5,5.2 27.5,22.6 13.9,11.4 13.9,31.5 13.9,31.5 0,0 12.2,-4.8 12.2,-15.8 2.3,1 4.9,1.8 7.4,2.3 12.2,3 20.6,13.5 12.2,30.5 l -7.8,14.4 c -3.1,5.3 -6.1,6.6 -10.5,6.6 -4.8,-0.5 -10.9,-0.8 -17,0 -22.6,2.2 -23.1,17.5 -23.1,17.5 0,0 7.4,-4.4 16.5,-4.4 3.6,0 7.1,1 10.1,1.8 0,0 -18.8,3 -18.8,19.2 0,6.6 5.3,10.1 5.3,10.1 0,0 4.8,-17 24.1,-17 0,0 -10.5,4.8 -10.5,14.8 0,10 9.2,13.1 9.2,13.1 0,0 -6.1,-15.2 23.1,-15.2 h 7.9 c 5.2,0 9.6,-3.1 11.4,-7.9 l 5.6,-15.7 c 3.5,-9.2 9.2,-9.2 12.7,-8.4 5.6,1.3 5.6,9.2 5.6,9.2 0,0 9.6,-14.4 -1.8,-27.5 -2.2,-2.6 -3,-6.9 -1.7,-10.4 l 7.9,-21.8 c 17.4,4.3 25.8,-10.1 25.8,-10.1 -18.5,-4 -27.5,-9.7 -54.1,-31.5 -11.8,-9.6 -19.3,-21.8 -19.3,-24 6.6,7 15.7,10.9 25.3,10.9 7.4,0 14.8,-2.6 21.4,-7.4 5.8,-4.8 9.6,-10.9 11.4,-17.5 9.2,-15.7 31,-3.1 34.5,-35.3 -9.2,13 -29.2,4.3 -33.2,20.5 -8.3,-35.8 43.2,-12.2 43.7,-66.3 -12.7,21.8 -57.7,14.4 -54.6,41.4 l -0.5,-0.4 c -17.4,-56.1 68.2,-19.9 63.4,-94 M 416.7,730.2 c -6.5,0 -8.3,-9.6 1.8,-9.6 7.1,0 13.5,2.2 13.5,2.2 0,0 -9.1,7.4 -15.3,7.4"
         id="path146"
         style="fill:#c88c28;fill-opacity:1" /></g></g></g></svg>
