<svg width="383" height="30" viewBox="0 0 383 30" fill="none" xmlns="http://www.w3.org/2000/svg"><path fill-rule="evenodd" clip-rule="evenodd" d="M141.37 12.0081C139.03 12.5074 136.703 13.0374 134.39 13.6005C133.548 13.8052 133.034 14.652 133.239 15.4907L133.25 15.5237C120.722 15.7358 108.198 16.0671 95.6788 16.5209C77.5945 17.1771 59.3957 18.2612 41.3737 19.9491C23.5636 21.617 18.6432 22.0459 3.32075 24.8404C2.88256 24.9203 2.03719 24.915 1.58242 25.0417C1.14997 25.162 0.840436 25.3719 0.641686 25.5773C0.387104 25.8378 0.240732 26.1378 0.178791 26.4661C0.113262 26.8239 0.132958 27.2612 0.440963 27.7497C1.30988 29.1208 2.71398 29.4976 4.42626 29.2091C5.89954 28.9606 7.68047 28.0791 9.0761 27.9787C32.3095 26.3105 55.5271 24.4598 78.7629 22.8252C114.334 20.3229 149.798 19.1486 185.268 18.4505C222.559 18.7872 259.831 20.1431 297.039 22.4398C321.272 23.9346 345.454 26.1507 369.656 28.0902C369.638 28.1964 369.635 28.3073 369.64 28.4205C369.693 29.2821 370.44 29.9389 371.304 29.8867C372.179 29.8337 379.991 29.6139 381.432 29.2602C382.256 29.0575 382.579 28.5497 382.686 28.3322C382.976 27.7359 382.992 27.0879 382.345 26.4695C382.217 26.3508 381.978 26.1548 381.54 26.0295C381.165 25.9197 380.236 25.7807 378.548 25.6525C351.442 23.5709 324.369 20.9933 297.232 19.3168C285.117 18.5707 272.995 17.9216 260.863 17.3782C277.329 17.1688 293.801 16.9306 310.299 16.58C311.01 16.5669 311.354 16.4519 311.418 16.4248C312.323 16.0349 312.386 15.3212 312.369 14.9167C312.364 14.7723 312.242 13.5808 310.913 13.4131C310.134 13.3146 304.515 13.1222 302.353 13.0074C291.964 12.4465 292.207 12.5344 281.579 12.0498C258.207 10.9874 234.87 10.2791 211.471 9.70575C202.142 9.4775 192.813 9.29349 183.481 9.15815C210.373 6.88076 237.821 6.97985 263.98 6.70426C277.474 6.56241 290.971 6.50431 304.466 6.68079C310.509 6.76001 316.551 6.94032 322.594 7.04967C324.472 7.08343 326.344 7.16099 328.22 7.20597C328.442 7.21106 331.352 7.23555 331.829 7.22528C333.079 7.19844 333.367 6.08847 333.378 6.04401C333.431 5.83513 333.638 4.3416 332.085 4.11083C309.647 0.776033 286.125 1.55127 263.462 1.00418C223.797 0.0464977 184.026 0.242436 144.363 1.46271C126.819 2.00228 109.332 3.13199 91.8134 4.25598C83.0639 4.81742 74.2913 5.41254 65.6253 6.78578C64.7559 6.92376 62.7856 7.06533 61.8298 7.22895C61.3435 7.31249 60.9972 7.44434 60.8386 7.53436C60.1437 7.92506 60.0055 8.49994 59.9944 8.90302C59.9875 9.2051 60.052 10.2688 61.4837 10.594C81.9413 15.2477 104.642 12.2587 125.416 12.0871C130.734 12.0431 136.05 12.0171 141.37 12.0081ZM158.693 12.0394C152.531 12.977 146.43 14.0906 140.415 15.416C155.371 15.2171 170.327 15.1879 185.29 15.3233C209.973 14.8376 234.656 14.5817 259.369 14.2692C243.39 13.68 227.406 13.2246 211.395 12.8325C193.834 12.4022 176.264 12.1302 158.693 12.0394ZM244.219 3.75759C210.972 3.26391 177.679 3.56643 144.463 4.58843C126.951 5.12722 109.501 6.25517 92.0162 7.37706C85.1361 7.81849 78.2374 8.27855 71.3924 9.13203C89.0782 11.3073 107.923 9.10391 125.389 8.95987C136.42 8.86882 147.456 8.854 158.489 8.91063C186.542 4.67293 215.847 4.03805 244.219 3.75759Z" fill="url(#paint0_linear_508_29)"></path><defs><linearGradient id="paint0_linear_508_29" x1="0.613706" y1="33.3775" x2="366.935" y2="7.24713" gradientUnits="userSpaceOnUse"><stop stop-color="#2D92E9"></stop><stop offset="0.195" stop-color="#644AD5"></stop><stop offset="0.4" stop-color="#C141AC"></stop><stop offset="0.61" stop-color="#E72192"></stop><stop offset="0.795" stop-color="#F04D66"></stop><stop offset="1" stop-color="#FD7043"></stop></linearGradient></defs></svg>