<svg viewBox="0 0 164 133" fill="none" xmlns="http://www.w3.org/2000/svg"><path d="M44.2024 80.1895C37.9869 80.3282 23.458 78.3522 15.0297 78.9308C8.64493 79.3673 2.81173 82.9437 1.61396 87.8904C0.58198 92.1536 4.09408 96.6639 13.2702 98.7752C23.4682 101.12 22.9167 113.805 43.1535 110.956C63.3904 108.107 78.1934 70.7427 78.1934 70.7427C78.1934 70.7427 61.1911 79.7936 44.2024 80.1895Z" fill="#981E1F"></path><path d="M30.5161 111.552C26.043 110.164 23.3701 107.535 20.8899 105.096C18.4944 102.727 16.4237 100.697 13.0029 99.9157C7.30505 98.6063 3.29896 96.2987 1.41095 93.2434C0.336416 91.5698 -0.00708491 89.5295 0.460175 87.5963C1.10981 84.9132 2.93015 82.521 5.72833 80.7074C8.50392 78.9586 11.6743 77.9348 14.9484 77.7299C19.9662 77.3916 27.0479 77.9262 33.2973 78.4066C37.5944 78.745 41.658 79.0461 44.1788 78.9886C60.6938 78.6232 77.4659 69.7854 77.6351 69.6974L80.4874 68.1782L79.2964 71.1828C76.5073 77.8658 73.151 84.2978 69.2642 90.408C65.5897 96.116 61.7934 100.795 57.9734 104.318C53.1113 108.797 48.1815 111.423 43.3227 112.1C37.767 112.888 33.6898 112.533 30.5161 111.552ZM14.5289 97.8687C18.0308 98.9548 20.3283 101.212 22.5546 103.401C26.5912 107.373 30.7664 111.481 42.9878 109.752C59.0663 107.478 71.8831 81.9627 75.8317 73.2095C70.2049 75.8149 57.3136 81.0593 44.2295 81.3503C41.5937 81.4078 37.6655 81.1101 33.1146 80.7616C26.9464 80.2913 19.9561 79.7465 15.1109 80.0849C8.98667 80.5044 3.79634 83.8913 2.76774 88.1411C2.45139 89.4596 2.69645 90.8503 3.44445 91.9813C4.96704 94.4479 8.55696 96.4408 13.5477 97.5879C13.8725 97.6792 14.2108 97.7841 14.5289 97.8687Z" fill="#221F1F"></path><path d="M79.5366 71.7783C79.5366 71.7783 64.9198 79.5604 45.5457 81.2116C39.3505 81.736 24.8148 79.618 16.3729 79.9529C9.64645 80.2202 2.12148 83.9895 2.65946 89.9851C2.65946 89.9851 2.47337 80.5484 25.5152 83.3838C29.2777 83.8474 42.1926 85.3666 50.6413 84.365C61.8442 83.0421 75.199 78.5589 79.5366 71.7783Z" fill="#C32727"></path><path d="M89.8902 121.388L98.6603 117.07L105.681 111.646L109.664 106.537L113.521 99.6383L115.632 92.0592L116.126 86.7741L115.798 84.3853L111.058 85.4038L105.444 86.1549L99.5502 86.4019L92.8677 85.9417L84.7642 84.118L79.716 81.5026L74.0079 78.4912L70.3199 79.4251L59.6956 83.2417L54.0993 86.3748L50.242 89.4742L46.8653 94.0013L45.5829 98.1428L46.6284 102.145L49.1728 103.891L51.9812 105.742L53.118 109.999L54.1432 114.13L69.7616 124.795L75.1583 124.778L82.6156 123.624L89.8902 121.388Z" fill="#9B612F"></path><path d="M115.378 81.4076C125.316 78.9985 139.767 72.1637 149.714 69.5111C152.895 68.6584 157.121 67.7313 159.895 70.1167C162.389 72.2686 162.294 75.9398 160.643 78.7921C159.695 80.4436 158.101 81.6245 156.245 82.0504C144.615 84.7268 113.612 98.9681 113.612 98.9681" fill="#9B612F"></path><path d="M115.378 85.011C128.398 81.685 139.807 76.6841 149.214 74.0721C152.225 73.2363 156.228 72.3126 158.88 74.5525C160.039 75.5443 160.718 76.9834 160.748 78.5079C162.247 75.6995 162.277 72.1976 159.862 70.1167C157.087 67.7313 152.861 68.6584 149.681 69.5111C139.733 72.1637 130.773 77.0394 115.345 81.4076" fill="#824E20"></path><path d="M154.072 82.6089C153.841 82.5249 153.615 82.4266 153.396 82.3146C149.112 79.8378 147.725 74.211 150.032 69.4267L150.344 69.3421C150.587 69.2812 150.834 69.2169 151.088 69.1594L151.667 69.0342C151.904 68.9834 152.137 68.9327 152.374 68.8887C152.611 68.8447 152.804 68.821 153.013 68.7872C153.223 68.7534 153.47 68.7161 153.69 68.6891C153.91 68.662 154.147 68.6552 154.367 68.6417C154.587 68.6282 154.796 68.6045 155.013 68.6045C155.23 68.6045 155.49 68.6045 155.727 68.6282C155.964 68.6519 156.126 68.6282 156.326 68.662C156.525 68.6958 156.816 68.7534 157.063 68.8041C157.239 68.8314 157.413 68.8675 157.585 68.9124C157.851 68.9972 158.112 69.0977 158.366 69.2135C158.501 69.2778 158.644 69.3116 158.776 69.3793C159.165 69.5829 159.529 69.8304 159.862 70.1169C162.355 72.2688 162.261 75.94 160.609 78.7923C159.618 80.5077 157.97 81.5262 156.211 82.0506C155.487 82.2198 154.769 82.4127 154.072 82.6089Z" fill="#D9AD81"></path><path d="M158.644 69.3218C158.367 69.1878 158.081 69.0747 157.788 68.9834C157.723 68.9631 157.666 68.9293 157.601 68.9124C157.43 68.8675 157.256 68.8314 157.08 68.8041H157.023C156.793 68.7567 156.569 68.6992 156.346 68.6721C156.187 68.6552 156.025 68.6518 155.862 68.6451C155.588 68.6281 155.314 68.6078 155.033 68.6146C154.82 68.6146 154.61 68.6349 154.397 68.6518H154.255C154.066 68.6518 153.873 68.6688 153.683 68.6924L153.074 68.7804C152.844 68.8142 152.614 68.8481 152.398 68.8887C152.181 68.9293 151.951 68.9767 151.721 69.0274L151.179 69.1458H151.112L150.574 69.2778L150.131 69.3928C150.105 69.3964 150.08 69.4032 150.056 69.4131C149.35 70.8922 148.986 72.5111 148.99 74.1501C149.078 74.123 149.166 74.0892 149.254 74.0655C152.266 73.2298 156.268 72.306 158.921 74.5459C160.079 75.5377 160.759 76.9768 160.789 78.5013C161.161 77.8078 161.441 77.0684 161.621 76.302V76.2715C161.705 75.913 161.763 75.5489 161.794 75.182C161.794 75.1313 161.794 75.0805 161.794 75.0298C161.816 74.7087 161.816 74.3865 161.794 74.0655C161.794 73.964 161.763 73.8659 161.75 73.7643C161.725 73.4991 161.683 73.2358 161.624 72.976C161.587 72.8203 161.523 72.6782 161.472 72.526C161.421 72.3737 161.347 72.1267 161.262 71.9339C161.161 71.7344 161.048 71.5411 160.924 71.3553C160.843 71.2267 160.782 71.0914 160.691 70.9696C160.454 70.6559 160.185 70.3679 159.889 70.1101C159.553 69.8216 159.185 69.573 158.792 69.3691C158.745 69.3478 158.695 69.3319 158.644 69.3218Z" fill="#F7D4B0"></path><path d="M148.273 71.8456C148.472 70.8706 148.788 69.9231 149.214 69.0238C149.327 68.7909 149.536 68.6183 149.785 68.5501L150.124 68.4621L151.315 68.1813L152.205 67.9986L152.655 67.9275L152.878 67.8903L153.582 67.7888C153.809 67.7685 154.018 67.755 154.225 67.7448C154.614 67.7143 154.81 67.7008 155.006 67.6974C155.203 67.694 155.45 67.6974 155.683 67.7177L155.964 68.6279L155.998 67.7347C156.15 67.7363 156.303 67.7464 156.454 67.7651C156.674 67.7888 156.888 67.8362 157.101 67.8801L157.263 68.8241L157.415 67.9444C157.572 67.9678 157.727 68.0017 157.879 68.0459C158.137 68.1266 158.39 68.2226 158.637 68.3335L158.586 69.2809L158.894 68.4418C159.001 68.477 159.105 68.52 159.205 68.5704C159.661 68.8055 160.087 69.094 160.474 69.4298C162.352 71.0471 163.103 73.5476 162.541 76.2882C162.326 77.3228 161.944 78.3157 161.411 79.2285C160.396 80.9676 158.704 82.2365 156.495 82.8996C155.71 83.0823 155.01 83.2651 154.33 83.4579C154.139 83.5123 153.935 83.5016 153.751 83.4275C153.481 83.335 153.219 83.2218 152.966 83.0891C149.214 80.9304 147.332 76.41 148.273 71.8456ZM150.709 70.0862C150.41 70.7665 150.183 71.4765 150.032 72.2043C149.248 76.0142 150.784 79.7665 153.852 81.5395C153.941 81.5866 154.033 81.6284 154.127 81.6646C154.746 81.4955 155.378 81.3263 156.035 81.1808C157.209 80.8255 158.884 80.0304 159.862 78.342C160.294 77.5948 160.606 76.7841 160.785 75.9397C161.215 73.8521 160.674 71.9776 159.3 70.7934C159.019 70.5499 158.71 70.3409 158.38 70.1708C158.356 70.1708 158.041 70.0354 158.011 70.0219C157.8 69.9253 157.583 69.8417 157.361 69.7715C157.278 69.7471 157.193 69.729 157.107 69.7174L156.718 69.6396C156.559 69.6057 156.404 69.5719 156.241 69.5516C156.138 69.5396 156.034 69.5328 155.93 69.5313H155.697C155.402 69.5144 155.226 69.5042 155.05 69.5076C154.874 69.511 154.729 69.5076 154.57 69.5347C154.57 69.5347 154.346 69.5347 154.34 69.5347L153.795 69.5753L150.777 70.1539L150.709 70.0862Z" fill="#221F1F"></path><path d="M113.233 100.112C112.764 99.9653 112.433 99.5448 112.402 99.0542C112.37 98.5635 112.644 98.1042 113.091 97.8989C113.166 97.8651 120.965 94.2853 130.083 90.4247C142.365 85.2276 151.061 82.02 155.964 80.8933C157.498 80.5344 158.815 79.554 159.598 78.1865C160.853 76.0142 161.235 72.8405 159.104 71.0032C156.972 69.166 153.443 69.7209 150.002 70.6446C145.543 71.8322 140.938 73.6356 136.058 75.5439C130.164 77.8481 123.482 80.4636 115.669 82.5411C115.255 82.6637 114.807 82.5518 114.499 82.2488C114.191 81.9459 114.072 81.4997 114.188 81.0836C114.304 80.6675 114.637 80.3471 115.057 80.247C122.741 78.2169 129.356 75.615 135.192 73.3311C140.136 71.3991 144.802 69.572 149.403 68.3505C152.14 67.6163 157.239 66.2528 160.667 69.2032C163.374 71.5344 163.783 75.7165 161.682 79.3741C160.565 81.3071 158.697 82.6903 156.522 83.1941C145.147 85.8129 114.417 99.902 114.11 100.044C113.837 100.179 113.523 100.203 113.233 100.112Z" fill="#221F1F"></path><path d="M54.847 111.856C49.7311 120.711 47.4033 123.417 37.4658 126.067C34.2887 126.919 30.0593 127.847 27.2848 125.461C24.7911 123.309 24.8859 119.638 26.537 116.786C27.4852 115.134 29.0793 113.951 30.9356 113.524C38.127 111.841 45.1244 109.417 51.8154 106.29" fill="#824E20"></path><path d="M54.847 111.856C50.0729 120.315 47.3491 118.897 37.9294 121.509C34.918 122.345 30.9153 123.269 28.2626 121.029C27.1031 120.036 26.4223 118.596 26.3915 117.07C24.8926 119.878 24.8656 123.38 27.278 125.461C30.0525 127.847 34.2819 126.919 37.4591 126.067C47.4066 123.414 51.5142 123.451 56.6301 114.597" fill="#824E20"></path><path d="M33.0909 112.973C33.3224 113.057 33.5484 113.155 33.7677 113.267C38.0512 115.74 39.4384 121.371 37.1309 126.155L36.8196 126.239C36.576 126.3 36.329 126.365 36.0786 126.419C35.8857 126.466 35.6895 126.507 35.4966 126.547C35.3038 126.588 35.0263 126.649 34.7895 126.693C34.5526 126.737 34.3598 126.757 34.15 126.791L33.4733 126.892C33.2398 126.916 33.0131 126.926 32.7966 126.94C32.58 126.953 32.3669 126.974 32.1503 126.977C31.9338 126.98 31.6732 126.977 31.4398 126.95C31.2063 126.923 31.0371 126.95 30.8375 126.916C30.6379 126.882 30.3469 126.828 30.0999 126.777C29.9307 126.74 29.7616 126.72 29.5788 126.669C29.3126 126.584 29.0516 126.484 28.7973 126.368C28.6619 126.304 28.5198 126.267 28.3878 126.199C27.9987 125.997 27.6342 125.751 27.3017 125.465C24.8081 123.313 24.9028 119.642 26.554 116.789C27.5453 115.07 29.1931 114.055 30.9526 113.528C31.68 113.348 32.3939 113.169 33.0909 112.973Z" fill="#D9AD81"></path><path d="M28.5198 126.26C28.7963 126.394 29.0824 126.507 29.3758 126.598C29.4401 126.619 29.4976 126.652 29.5619 126.669C29.7277 126.72 29.9003 126.74 30.083 126.778H30.1405C30.3706 126.822 30.5939 126.879 30.8172 126.91C30.9762 126.927 31.1556 126.93 31.301 126.933C31.5751 126.954 31.8492 126.971 32.13 126.967C32.3432 126.967 32.5529 126.947 32.7661 126.93H32.9082C33.0977 126.93 33.2906 126.91 33.48 126.886C33.6695 126.862 33.8827 126.828 34.0891 126.798C34.2955 126.768 34.5492 126.734 34.7658 126.69C34.9823 126.646 35.2124 126.602 35.4425 126.554L35.9838 126.436L36.0549 126.419L36.5895 126.29L37.0327 126.175C37.058 126.17 37.0828 126.163 37.1072 126.155C37.8128 124.676 38.1771 123.057 38.173 121.418C38.085 121.445 37.9971 121.479 37.9091 121.503C34.8977 122.338 30.895 123.262 28.2423 121.022C27.0921 120.028 26.4191 118.591 26.3915 117.07C26.0185 117.764 25.7386 118.503 25.5592 119.27V119.3C25.4751 119.659 25.4174 120.023 25.3866 120.39C25.3866 120.44 25.3866 120.491 25.3866 120.538C25.3647 120.859 25.3647 121.182 25.3866 121.503C25.3866 121.608 25.4205 121.706 25.4306 121.807C25.455 122.071 25.4968 122.334 25.5558 122.592C25.593 122.748 25.6573 122.893 25.7081 123.046C25.769 123.246 25.8402 123.444 25.9212 123.638C26.023 123.837 26.1359 124.03 26.2596 124.216C26.3408 124.345 26.4017 124.48 26.493 124.602C26.7305 124.915 26.9992 125.203 27.2949 125.461C27.6314 125.749 27.9991 125.997 28.3912 126.202L28.5198 126.26Z" fill="#F7D4B0"></path><path d="M38.8903 123.736C38.6889 124.707 38.3696 125.65 37.9395 126.544C37.8264 126.778 37.618 126.952 37.3677 127.021L37.0293 127.109L35.8383 127.39L34.9485 127.573L34.4985 127.644L34.2752 127.678L33.5714 127.782C33.3447 127.803 33.1349 127.816 32.9285 127.826C32.5394 127.857 32.3432 127.87 32.1469 127.874C31.9507 127.877 31.7037 127.874 31.4871 127.853L31.2063 126.94L31.1725 127.837C31.0168 127.837 30.8679 127.837 30.7157 127.806C30.4982 127.779 30.2825 127.739 30.0694 127.688L29.907 126.744L29.7548 127.627C29.5984 127.602 29.4437 127.568 29.2912 127.525C29.033 127.443 28.7799 127.346 28.5333 127.234L28.5841 126.29L28.2762 127.129C28.1693 127.093 28.0653 127.049 27.9649 126.997C27.5098 126.761 27.084 126.473 26.6961 126.138C24.8182 124.524 24.067 122.02 24.6321 119.28C24.848 118.246 25.2284 117.253 25.7588 116.339C26.7739 114.604 28.4656 113.331 30.6751 112.672C31.4601 112.489 32.1604 112.306 32.8405 112.11C33.0314 112.055 33.235 112.066 33.4191 112.14C33.6885 112.234 33.9508 112.347 34.2041 112.479C37.9531 114.651 39.8309 119.168 38.8903 123.736ZM36.4541 125.495C36.7549 124.814 36.9818 124.103 37.1309 123.374C37.9158 119.567 36.3797 115.815 33.3108 114.042C33.2228 113.992 33.1312 113.949 33.0368 113.913C32.4176 114.086 31.7849 114.252 31.1285 114.401C29.9544 114.739 28.2795 115.548 27.3017 117.236C26.8695 117.984 26.5589 118.796 26.3814 119.642C25.9483 121.729 26.493 123.604 27.8634 124.785C28.1447 125.028 28.4536 125.238 28.7837 125.411L29.1525 125.556C29.3638 125.654 29.5807 125.738 29.8021 125.81C29.8856 125.833 29.9704 125.851 30.0559 125.864L30.445 125.938C30.6023 125.977 30.7615 126.008 30.9221 126.03C31.0236 126.03 31.1285 126.03 31.2334 126.05C31.2334 126.05 31.4601 126.05 31.4668 126.05C31.7612 126.05 31.9371 126.077 32.1131 126.074C32.289 126.07 32.4514 126.057 32.5935 126.043C32.5935 126.043 32.8169 126.043 32.8236 126.043L33.3718 126.003L36.3865 125.421L36.4541 125.495Z" fill="#221F1F"></path><path d="M29.0984 127.772C28.1536 127.485 27.2782 127.006 26.5269 126.365C23.8201 124.03 23.4107 119.852 25.5118 116.194C26.6294 114.261 28.4972 112.877 30.6717 112.371C37.7704 110.703 44.6787 108.31 51.2876 105.228C51.6683 105.041 52.1201 105.071 52.4728 105.307C52.8255 105.543 53.0254 105.949 52.9972 106.373C52.9691 106.796 52.7172 107.172 52.3364 107.36C45.5673 110.54 38.4828 113.001 31.1995 114.702C29.6654 115.062 28.3494 116.042 27.5656 117.409C26.3103 119.581 25.9314 122.755 28.063 124.592C30.1946 126.429 33.7203 125.871 37.1613 124.951C40.061 124.176 42.5513 124.034 44.7472 123.908C50.127 123.597 53.0944 123.428 55.9839 114.096C56.1953 113.493 56.8463 113.165 57.4568 113.355C58.0673 113.544 58.4183 114.183 58.2509 114.8C54.8673 125.709 50.4687 125.966 44.8825 126.28C42.7983 126.402 40.44 126.537 37.7771 127.248C35.6624 127.783 32.1435 128.723 29.0984 127.772Z" fill="#221F1F"></path><path d="M135.341 43.6915C136.534 48.4269 140.462 51.9774 145.293 52.6872C150.125 53.3969 154.908 51.1261 157.412 46.9337C159.916 42.7414 159.648 37.4533 156.733 33.5357C153.818 29.6181 148.829 27.8426 144.094 29.0374C140.989 29.8181 138.322 31.8013 136.68 34.55C135.038 37.2987 134.557 40.5874 135.341 43.6915Z" fill="#F7D4B0"></path><path d="M135.368 44.9637C136.409 49.0877 139.832 52.1788 144.04 52.7954C148.248 53.4121 152.414 51.433 154.594 47.7809C156.774 44.1288 156.54 39.5231 154 36.1112C151.46 32.6994 147.115 31.1534 142.991 32.1942C140.287 32.8759 137.964 34.6045 136.534 36.9994C135.104 39.3944 134.685 42.2594 135.368 44.9637Z" fill="#D9AD81"></path><path d="M134.191 43.986C132.878 38.7879 134.825 33.3106 139.126 30.1089C143.426 26.9073 149.232 26.612 153.835 29.3609C158.439 32.1098 160.932 37.3613 160.153 42.6658C159.374 47.9703 155.475 52.2829 150.276 53.5919C149.708 53.7354 149.132 53.8416 148.55 53.9099C141.956 54.6554 135.825 50.4177 134.191 43.986ZM144.372 30.1846C140.097 31.2617 136.892 34.808 136.252 39.1697C135.612 43.5314 137.662 47.8492 141.447 50.1095C145.232 52.3698 150.005 52.1273 153.542 49.4951C157.078 46.8629 158.68 42.3595 157.601 38.0851C156.26 32.7925 151.215 29.3049 145.79 29.9207C145.312 29.9756 144.838 30.0615 144.372 30.1778V30.1846Z" fill="#221F1F"></path><path d="M52.668 67.0648C54.2989 73.5267 60.8587 77.4436 67.3209 75.8142C73.7832 74.1848 77.7015 67.6259 76.0736 61.1633C74.4456 54.7007 67.8876 50.7809 61.4246 52.4074C58.3196 53.1897 55.6526 55.1736 54.0104 57.9224C52.3682 60.6713 51.8853 63.9599 52.668 67.0648Z" fill="#D9AD81"></path><path d="M51.5278 67.3526C49.7395 60.259 54.04 53.0588 61.1334 51.27C68.2269 49.4812 75.4274 53.7812 77.2166 60.8746C79.0058 67.9679 74.7063 75.1687 67.6131 76.9584C67.0454 77.1008 66.4689 77.206 65.8875 77.2731C59.2941 78.0204 53.1618 73.7838 51.5278 67.3526ZM61.7088 53.5478C56.0172 54.9874 52.4927 60.6812 53.7426 66.4175C54.9924 72.1538 60.5661 75.8653 66.3407 74.8067C72.1153 73.748 76.0099 68.3006 75.1435 62.494C74.2771 56.6874 68.962 52.6141 63.1299 53.2872C62.6508 53.3415 62.176 53.4286 61.7088 53.5478Z" fill="#221F1F"></path><path d="M61.5193 41.2791C59.1949 25.2311 73.7 8.45891 95.2836 3.0182C116.867 -2.42252 137.578 5.47464 143.15 20.7005C144.808 25.2056 146.232 29.7929 147.417 34.4444C148.263 37.7975 148.987 41.1912 149.586 44.595C150.472 49.6466 151.105 54.59 149.315 59.5367C148.841 60.8548 148.255 62.1304 147.566 63.3499C145.082 67.7113 141.448 71.3587 137.456 74.3565C132.652 77.9078 127.331 80.6991 121.678 82.6326C119.745 83.3094 117.785 83.8981 115.798 84.3988C113.812 84.903 111.802 85.3124 109.782 85.6305C103.889 86.6073 97.8809 86.6735 91.9677 85.8267C87.0311 85.0789 82.1013 83.5902 77.8483 80.924C76.6612 80.1764 75.5395 79.3297 74.4952 78.3931C70.5804 74.8877 68.7939 70.2354 67.1766 65.3665C66.0871 62.0822 65.1194 58.7596 64.2735 55.3986C63.113 50.7427 62.1937 46.0299 61.5193 41.2791Z" fill="#9B612F"></path><path d="M148.591 47.9276C147.992 44.5238 147.268 41.1301 146.422 37.777C145.236 33.1221 143.811 28.5313 142.152 24.023C136.59 8.79711 113.24 0.023622 91.67 5.46095C75.6354 9.50089 66.1243 20.6868 61.8949 32.316C64.8217 19.3673 77.7062 7.41663 95.2701 2.99098C116.837 -2.44635 137.564 5.44742 143.137 20.6733C144.794 25.1783 146.218 29.7657 147.403 34.4172C148.249 37.7703 148.973 41.164 149.572 44.5678C150.459 49.6194 151.092 54.5627 149.302 59.5094C149.22 59.7361 149.112 59.9595 149.024 60.1862C149.85 56.1395 149.315 52.0725 148.591 47.9276Z" fill="#C1855E"></path><path d="M95.2836 3.00117C97.7333 2.38198 95.4832 3.12974 97.8889 2.84891C77.8719 8.01556 69.1052 22.4734 71.2707 37.4015C71.9012 41.8498 72.7629 46.2623 73.8523 50.621C74.6395 53.7609 75.5418 56.8715 76.5591 59.9527C78.0716 64.5103 79.743 68.8616 83.4108 72.1334C84.387 73.0093 85.4351 73.8015 86.5439 74.5019C90.5297 76.9956 95.1381 78.393 99.76 79.09C105.295 79.8815 110.918 79.821 116.434 78.9106C118.324 78.6106 120.202 78.2249 122.068 77.7535C123.933 77.282 125.767 76.7305 127.569 76.0989C132.86 74.2904 137.841 71.6794 142.338 68.3574C143.934 67.1586 145.44 65.8457 146.845 64.4291C144.399 68.2999 141.093 71.6056 137.456 74.3429C132.652 77.8941 127.331 80.6854 121.679 82.619C119.745 83.2957 117.785 83.8844 115.798 84.3852C113.812 84.8893 111.802 85.2988 109.782 85.6168C103.889 86.5936 97.8809 86.6598 91.9677 85.813C87.0312 85.0653 82.1014 83.5765 77.8483 80.9103C76.6612 80.1627 75.5395 79.3161 74.4952 78.3794C70.5804 74.8741 68.7939 70.2217 67.1766 65.3528C66.0871 62.0686 65.1194 58.7459 64.2735 55.385C63.1129 50.7279 62.1936 46.014 61.5194 41.2621C59.2118 25.214 73.717 8.4385 95.2836 3.00117Z" fill="#824E20"></path><path d="M91.7918 86.977C86.1278 86.121 81.225 84.4157 77.2189 81.9017C75.9789 81.1163 74.8064 80.229 73.7136 79.249C69.5654 75.5271 67.7247 70.7293 66.0601 65.7149C64.9841 62.4599 63.9961 59.0798 63.1333 55.6624C61.959 50.9659 61.0306 46.2112 60.352 41.4178C57.9396 24.737 73.1587 7.3558 94.996 1.85079C97.4616 1.22866 99.9651 0.767527 102.491 0.470314C121.99 -1.80003 139.165 6.34074 144.257 20.2707C145.928 24.8178 147.364 29.4481 148.557 34.1432C149.41 37.5267 150.144 40.9644 150.746 44.3818C151.657 49.5822 152.32 54.6812 150.408 59.9223C149.91 61.3057 149.297 62.6447 148.574 63.925C146.236 68.0259 142.727 71.8492 138.153 75.2903C133.25 78.9149 127.821 81.7676 122.054 83.7491C120.109 84.4258 118.092 85.0349 116.072 85.5424C114.052 86.0499 112.012 86.4762 109.948 86.8011C109.048 86.9398 108.134 87.065 107.241 87.1732C102.105 87.7931 96.91 87.7271 91.7918 86.977ZM95.5712 4.14144C74.8843 9.35546 60.44 25.5863 62.6799 41.0896C63.3489 45.804 64.2615 50.4807 65.4138 55.1008C66.2664 58.4572 67.2341 61.7832 68.2932 64.9841C69.8564 69.6838 71.5651 74.1737 75.2802 77.5031C76.2739 78.3967 77.3412 79.2048 78.4708 79.919C82.1927 82.2536 86.8011 83.8439 92.1437 84.6559C97.9369 85.4834 103.823 85.4172 109.596 84.4597C111.572 84.1484 113.565 83.7457 115.51 83.2517C117.456 82.7577 119.408 82.1792 121.289 81.516C126.828 79.6222 132.043 76.8891 136.752 73.4124C141.07 70.1642 144.365 66.5811 146.544 62.7645C147.198 61.5999 147.755 60.3834 148.209 59.1272C149.901 54.4275 149.285 49.6533 148.429 44.7912C147.837 41.4313 147.116 38.0241 146.277 34.7218C145.101 30.1091 143.688 25.5601 142.044 21.0929C137.331 8.19491 121.178 0.683476 102.761 2.82187C100.339 3.10595 97.9368 3.54673 95.5712 4.14144Z" fill="#221F1F"></path><path d="M85.3529 24.9502C98.9547 19.9696 107.231 30.5939 107.231 30.5939C107.231 30.5939 109.115 18.1831 120.4 16.1124C130.263 14.0011 137.994 22.1858 141.259 33.3041C141.959 36.2106 143.746 43.8844 144.243 46.7943C146.033 57.2324 140.413 66.1514 131.883 71.4703C122.691 77.0787 112.066 79.8897 101.303 79.5604C91.1794 79.1442 81.8747 74.0621 78.5081 63.8811C77.5708 61.0423 75.5102 53.3279 74.7557 50.3876C72.3839 38.8734 75.4832 27.8127 85.3529 24.9502Z" fill="#F7D4B0"></path><path d="M74.1264 46.114C74.0722 45.4813 74.0384 44.8519 74.0181 44.2294V44.023C73.7914 35.0905 77.2934 27.3997 85.1837 25.0109L85.3563 24.95C98.9581 19.9695 107.234 30.5938 107.234 30.5938C107.234 30.5938 109.119 18.183 120.403 16.1122C127.458 14.6032 133.416 18.3724 137.436 24.7064C133.538 20.0405 128.341 17.5096 122.352 18.7954C118.299 19.5602 114.726 21.9251 112.438 25.3561C111.532 26.7146 110.782 28.1708 110.202 29.6971C109.863 30.543 109.41 31.4566 108.435 31.6629C107.285 31.9133 107.102 31.1453 106.27 30.499C104.883 29.4142 103.362 28.5113 101.746 27.8125C97.1208 25.8297 91.9982 25.9143 87.3018 27.6332C84.3142 28.5027 80.9205 31.4701 79.4994 34.292C77.6216 38.0138 78.4607 43.7658 79.2626 47.6569C79.9968 50.516 81.9998 58.0206 82.91 60.7816C86.1887 70.6886 95.2362 75.6285 105.089 76.0379C115.559 76.3551 125.895 73.6194 134.837 68.1645C136.722 66.9874 138.468 65.6027 140.044 64.0366C137.82 67.0108 135.052 69.5366 131.887 71.4803C122.695 77.0887 112.069 79.8997 101.306 79.5703C94.0486 79.2726 87.2511 76.5252 82.7172 71.2705C82.3179 70.8036 81.9389 70.3232 81.5769 69.8224C81.1043 69.1779 80.6672 68.5081 80.2675 67.816C80.1017 67.5216 79.9528 67.2103 79.8006 66.9058C79.2923 65.9363 78.8612 64.9283 78.5114 63.8911C77.5742 61.0523 75.5136 53.3378 74.7591 50.3975C74.6102 49.6769 74.485 48.9629 74.3801 48.249C74.2752 47.5351 74.2042 46.8956 74.1433 46.246C74.1365 46.1952 74.1298 46.1546 74.1264 46.114Z" fill="#D9AD81"></path><path d="M101.256 80.7344C89.5688 80.2573 80.6464 74.0925 77.3915 64.2499C76.417 61.3062 74.2854 53.2737 73.6019 50.6244C70.8274 37.1579 75.314 26.6352 84.9469 23.8471C86.6314 23.2217 88.3838 22.797 90.1677 22.5817C98.3288 21.6309 104.04 25.7825 106.612 28.2187C107.789 24.3513 111.23 16.5996 120.146 14.962C129.88 12.9116 138.627 20.1422 142.396 33.0266C143.127 36.0549 144.896 43.6712 145.394 46.5946C147.129 56.6809 142.304 66.3544 132.499 72.4718C127.844 75.3383 122.787 77.4947 117.496 78.8701C114.837 79.5781 112.13 80.0948 109.396 80.4164C106.695 80.7362 103.973 80.8425 101.256 80.7344ZM120.613 17.256C110.306 19.144 108.469 30.286 108.395 30.7597C108.323 31.2237 107.983 31.601 107.529 31.7206C107.074 31.8341 106.595 31.6714 106.304 31.3044C106.246 31.2266 100.301 23.7592 90.4384 24.9062C88.8126 25.1052 87.2159 25.4947 85.6811 26.0667C75.4189 29.0442 74.0046 40.8934 75.896 50.0898C76.7621 53.4463 78.7415 60.8325 79.6178 63.5021C82.5547 72.3771 90.6752 77.9396 101.343 78.3896C111.87 78.7084 122.262 75.9587 131.254 70.4756C140.22 64.886 144.639 56.1057 143.076 46.9939C142.585 44.1314 140.833 36.5861 140.122 33.6357C136.908 22.6494 129.779 16.1361 121.959 17.0564C121.533 17.0936 121.09 17.168 120.613 17.256Z" fill="#221F1F"></path><path d="M129.369 33.2193C131.363 32.7213 133.382 33.9326 133.882 35.9255C134.381 37.9185 133.171 39.9391 131.179 40.4398C129.186 40.9406 127.165 39.732 126.662 37.7397C126.421 36.7813 126.571 35.7661 127.078 34.9181C127.586 34.0701 128.41 33.4589 129.369 33.2193Z" fill="#221F1F"></path><path d="M89.6635 44.2296C91.6568 43.7315 93.6766 44.9428 94.176 46.9358C94.6754 48.9287 93.4655 50.9494 91.4728 51.4501C89.4802 51.9508 87.4588 50.7422 86.9567 48.75C86.7152 47.7915 86.8648 46.7764 87.3726 45.9284C87.8804 45.0804 88.7046 44.4692 89.6635 44.2296Z" fill="#221F1F"></path><path d="M78.6163 114.363C79.5772 108.899 85.7217 103.928 92.7324 101.678C99.9021 99.3842 105.343 100.775 104.507 106.415C103.661 112.113 96.7791 119.557 89.4842 121.678C82.345 123.759 77.6385 119.902 78.6163 114.363Z" fill="#F7D4B0"></path><path d="M86.6184 122.437C82.751 121.723 80.572 118.654 81.2656 114.729C82.2265 109.268 88.371 104.294 95.3817 102.051C97.1607 101.455 99.0129 101.105 100.887 101.012C98.8228 100.633 96.1261 100.941 93.1046 101.902C86.0871 104.149 79.946 109.122 78.9885 114.583C78.1934 119.219 81.3739 122.667 86.6184 122.437Z" fill="#D9AD81"></path><path d="M54.7794 93.9843C54.7794 93.9843 57.7975 98.931 67.4574 97.4389C70.5466 96.9618 74.6305 96.5152 77.0024 99.0528C78.0366 100.172 78.5427 101.681 78.393 103.198C80.21 100.582 80.6498 97.1073 78.4945 94.7592C76.0212 92.0523 71.7275 92.4922 68.4556 92.9659C58.2678 94.4343 70.6143 91.4534 54.7794 93.9809" fill="#824E20"></path><path d="M71.2673 106.486C71.0464 106.376 70.8329 106.252 70.6278 106.114C66.6657 103.154 65.9484 97.4015 68.7973 92.9183L69.1357 92.8743C69.3861 92.8405 69.6364 92.8067 69.8936 92.7796C70.0864 92.7559 70.2895 92.7424 70.4823 92.7221L71.203 92.6612C71.4196 92.6443 71.6361 92.6443 71.8526 92.6375L72.5294 92.6172C72.7628 92.6172 72.9861 92.6375 73.2061 92.651C73.426 92.6646 73.6358 92.651 73.8523 92.6882C74.0689 92.7255 74.3226 92.7593 74.5561 92.7999C74.7896 92.8405 74.952 92.8574 75.1482 92.9014C75.3445 92.9454 75.6219 93.0503 75.8655 93.1281C76.0279 93.1856 76.2039 93.2262 76.3697 93.2973C76.6242 93.4121 76.8716 93.5421 77.1107 93.6864C77.2358 93.7676 77.3746 93.8183 77.4964 93.8995C77.8583 94.1476 78.1909 94.4359 78.4877 94.759C80.7141 97.1883 80.1795 100.826 78.2171 103.465C77.0294 105.052 75.2734 105.87 73.4801 106.172C72.7177 106.266 71.9801 106.371 71.2673 106.486Z" fill="#D9AD81"></path><path d="M77.3644 93.8255C77.1044 93.6609 76.8331 93.5151 76.5524 93.389C76.4915 93.362 76.4373 93.3214 76.3764 93.2977C76.2174 93.2266 76.0381 93.186 75.8723 93.1285L75.8148 93.1116C75.5915 93.0405 75.3749 92.9559 75.1381 92.9018C74.9824 92.8646 74.82 92.8443 74.661 92.8172C74.3903 92.7665 74.1196 92.7157 73.8422 92.6886C73.629 92.665 73.4192 92.6616 73.2061 92.6514H73.064C72.8745 92.6514 72.6816 92.6244 72.4888 92.6277C72.2959 92.6311 72.0827 92.6277 71.873 92.6277C71.6632 92.6277 71.4094 92.6277 71.1759 92.6548L70.4992 92.7123L69.9477 92.7665H69.8767L69.3285 92.8341L68.8752 92.895H68.7973C67.9254 94.2804 67.375 95.8435 67.1868 97.4696C67.2781 97.4526 67.3661 97.429 67.4575 97.4154C70.5466 96.9383 74.6305 96.4917 77.0024 99.0294C78.0366 100.149 78.5427 101.657 78.393 103.174C78.846 102.53 79.2112 101.827 79.4791 101.087V101.056C79.6027 100.71 79.7021 100.357 79.7769 99.9971C79.7769 99.9463 79.7769 99.8956 79.8006 99.8482C79.859 99.5315 79.8997 99.2119 79.9224 98.8906C79.9224 98.7858 79.9224 98.6876 79.9224 98.5827C79.9292 98.3173 79.919 98.0517 79.8919 97.7876C79.8716 97.6286 79.8242 97.4797 79.7938 97.3241C79.7633 97.1684 79.716 96.9113 79.6517 96.7083C79.5723 96.4979 79.4808 96.2923 79.3776 96.0925C79.3133 95.9571 79.266 95.815 79.1915 95.6831C78.9932 95.3436 78.7595 95.0261 78.4945 94.7357C78.1909 94.4096 77.8502 94.12 77.4795 93.8729C77.4422 93.8546 77.4038 93.8388 77.3644 93.8255Z" fill="#F7D4B0"></path><path d="M66.7672 95.1179C67.082 94.1762 67.5104 93.2763 68.0428 92.4381C68.1828 92.2201 68.4093 92.0723 68.6654 92.0321L69.0037 91.9848L70.2184 91.846C70.6278 91.8088 70.8714 91.7851 71.1252 91.7682L71.582 91.7513H71.8053L72.5158 91.7344C72.7459 91.7344 72.9523 91.7344 73.1621 91.7614C73.5512 91.7784 73.7474 91.7885 73.9437 91.8088C74.1399 91.8291 74.3801 91.8663 74.5967 91.9036L74.7692 92.8442L74.9046 91.9577C75.0602 91.9814 75.2057 92.0051 75.358 92.0423C75.5711 92.093 75.7775 92.1641 75.9839 92.2351L76.0347 93.1893L76.2884 92.3333C76.4419 92.3744 76.5923 92.4264 76.7385 92.4889C76.985 92.5994 77.2245 92.7248 77.4558 92.8645L77.2934 93.7983L77.6994 92.9998C77.8012 93.0483 77.8995 93.1037 77.9937 93.1656C78.4188 93.4576 78.8083 93.7982 79.1543 94.1807C80.8258 96.0078 81.2825 98.5793 80.3994 101.235C80.066 102.238 79.5712 103.18 78.9344 104.023C77.7332 105.631 75.8892 106.693 73.6256 107.092C72.8203 107.18 72.1064 107.282 71.406 107.393C71.2098 107.424 71.009 107.389 70.8342 107.295C70.5779 107.168 70.3314 107.022 70.0966 106.859C66.6352 104.25 65.3021 99.5436 66.7672 95.1179ZM69.3928 93.6562C69.0138 94.2987 68.7031 94.9792 68.4657 95.6863C67.2409 99.3778 68.327 103.282 71.1725 105.404C71.255 105.462 71.3409 105.515 71.4297 105.563C72.0658 105.465 72.7121 105.377 73.382 105.302C74.5899 105.089 76.346 104.497 77.5133 102.934C78.0323 102.243 78.4367 101.473 78.7111 100.653C79.3878 98.6232 79.0494 96.7048 77.8415 95.3717C77.5903 95.0981 77.3088 94.8541 77.0024 94.6442L76.664 94.4547C76.4658 94.3295 76.2602 94.2165 76.0482 94.1164C75.9686 94.0847 75.8873 94.0576 75.8046 94.0352L75.4256 93.9134C75.2734 93.8592 75.1211 93.8085 74.9621 93.7679C74.864 93.7442 74.7591 93.7307 74.6542 93.7137L74.4275 93.6765C74.1365 93.6258 73.964 93.5919 73.788 93.575C73.6121 93.5581 73.4666 93.5513 73.3042 93.5479H73.0741L72.5293 93.5209L69.4639 93.7442L69.3928 93.6562Z" fill="#221F1F"></path><path d="M52.3094 107.278C50.5718 106.78 48.944 105.958 47.5115 104.856C45.5432 103.355 44.388 101.021 44.3885 98.5454C44.3682 96.9146 44.8961 92.6107 50.2387 87.8568C55.4324 83.2349 63.5055 79.6585 74.2313 77.2224C74.651 77.111 75.0981 77.2375 75.3972 77.5525C75.6962 77.8674 75.7995 78.3204 75.6666 78.7338C75.5337 79.1473 75.1857 79.4552 74.7591 79.5367C64.4258 81.8849 56.708 85.2887 51.8154 89.6332C47.0784 93.8491 46.7401 97.4965 46.7638 98.515C46.7571 100.285 47.5893 101.953 49.0071 103.012C53.0876 106.307 62.8254 107.116 73.2399 105.021C75.0907 104.649 76.4103 103.908 77.2697 102.755C78.772 100.745 79.5197 97.6386 77.608 95.5611C75.6963 93.4837 72.1403 93.6291 68.6146 94.1401C58.3828 95.6153 54.7658 95.1788 54.6169 95.1551C54.1939 95.1007 53.8319 94.8247 53.6675 94.4311C53.5031 94.0375 53.5611 93.5861 53.8198 93.2469C54.0784 92.9077 54.4984 92.7322 54.9215 92.7866C54.9519 92.7866 58.4674 93.1859 68.2763 91.7716C71.0812 91.3656 76.302 90.6076 79.3607 93.9404C81.7732 96.5728 81.692 100.775 79.1645 104.159C77.9532 105.779 76.1193 106.845 73.6967 107.332C67.1326 108.672 58.5148 109.2 52.3094 107.278Z" fill="#221F1F"></path><path d="M64.5612 125.004C59.9698 123.634 56.0811 120.551 53.7 116.393C51.9343 113.314 50.8831 109.878 50.6244 106.337C50.5789 105.897 50.7824 105.468 51.1523 105.224C51.5221 104.98 51.9969 104.962 52.3838 105.178C52.7708 105.394 53.0056 105.807 52.9929 106.249C53.2518 109.427 54.2083 112.508 55.7944 115.273C59.2084 121.079 65.0112 123.911 73.0504 123.698C83.7289 123.411 95.6964 118.843 103.536 112.062C108.693 107.6 115.514 95.9196 114.908 85.5964C114.901 84.9626 115.393 84.4351 116.026 84.3981C116.659 84.361 117.209 84.8274 117.277 85.4577C117.953 97.0497 110.405 109.257 105.096 113.859C96.8671 120.964 84.3176 125.769 73.1215 126.07C70.2289 126.188 67.3366 125.828 64.5612 125.004Z" fill="#221F1F"></path><path d="M74.7557 113.186C69.6398 122.041 60.8393 128.04 50.8951 130.696C47.7145 131.545 43.4851 132.475 40.714 130.087C38.2204 127.938 38.3151 124.264 39.9663 121.411C40.9139 119.759 42.5084 118.578 44.3649 118.153C55.994 115.477 60.2438 113.037 60.2438 113.037" fill="#9B612F"></path><path d="M73.788 112.496C69.0172 120.954 60.7783 123.519 51.362 126.135C48.3506 126.97 44.3445 127.891 41.6919 125.651C40.5362 124.659 39.8581 123.221 39.8275 121.699C38.3286 124.507 38.2982 128.006 40.714 130.087C43.4851 132.475 47.7145 131.545 50.8951 130.696C60.8392 128.04 69.6804 125.103 74.7997 116.248" fill="#824E20"></path><path d="M46.5168 117.595C46.7491 117.678 46.9752 117.777 47.1935 117.892C51.477 120.366 52.8609 125.996 50.5567 130.78L50.2454 130.862C49.9984 130.926 49.7548 130.987 49.5011 131.044C49.3116 131.092 49.1153 131.129 48.9225 131.169C48.7296 131.21 48.4522 131.271 48.2153 131.318C47.9785 131.366 47.7856 131.383 47.5724 131.416C47.3593 131.45 47.1157 131.488 46.8957 131.515C46.6758 131.542 46.439 131.552 46.219 131.562C45.9991 131.572 45.7859 131.599 45.5728 131.603C45.3596 131.606 45.0957 131.603 44.8589 131.575C44.622 131.548 44.4596 131.575 44.26 131.542C44.0603 131.508 43.7694 131.45 43.5224 131.4C43.3498 131.366 43.184 131.345 42.9979 131.295C42.7324 131.21 42.4724 131.108 42.2197 130.99C42.0844 130.929 41.9389 130.892 41.8103 130.824C41.4198 130.623 41.0551 130.376 40.7242 130.087C38.2305 127.938 38.3253 124.264 39.9764 121.411C40.9678 119.696 42.6156 118.681 44.375 118.153C45.1104 117.982 45.8243 117.795 46.5168 117.595Z" fill="#D9AD81"></path><path d="M41.9558 130.885C42.2334 131.019 42.5207 131.132 42.8152 131.223C42.8795 131.247 42.937 131.278 42.9979 131.298C43.1671 131.349 43.3363 131.369 43.5223 131.403H43.5799C43.8099 131.447 44.0333 131.504 44.2566 131.531C44.4156 131.552 44.5949 131.552 44.737 131.558C45.0145 131.579 45.2885 131.596 45.5694 131.592C45.7792 131.592 45.9923 131.569 46.2055 131.552H46.3442C46.5371 131.552 46.7299 131.531 46.9194 131.508C47.1089 131.484 47.322 131.45 47.5284 131.42C47.7348 131.389 47.9886 131.355 48.2051 131.311C48.4217 131.267 48.6518 131.223 48.8819 131.173C49.1119 131.122 49.2473 131.098 49.4266 131.054H49.4943L50.0323 130.926L50.4721 130.811L50.5499 130.79C51.2556 129.311 51.6198 127.692 51.6158 126.053L51.3518 126.138C48.3405 126.974 44.3344 127.894 41.6817 125.654C40.526 124.662 39.8479 123.225 39.8174 121.702C39.443 122.394 39.1631 123.132 38.985 123.898V123.932C38.9009 124.29 38.8433 124.654 38.8125 125.021C38.8125 125.072 38.8125 125.12 38.8125 125.17C38.7922 125.491 38.7922 125.813 38.8125 126.135C38.8125 126.236 38.8429 126.334 38.8565 126.439C38.8817 126.703 38.9223 126.965 38.9783 127.224C39.0189 127.38 39.0832 127.525 39.1305 127.674C39.2016 127.874 39.2557 128.077 39.3437 128.27C39.445 128.469 39.5579 128.662 39.682 128.848C39.7632 128.977 39.8242 129.112 39.9155 129.234C40.1512 129.547 40.42 129.834 40.7174 130.09C41.0524 130.379 41.4204 130.628 41.8137 130.831C41.8598 130.852 41.9073 130.87 41.9558 130.885Z" fill="#F7D4B0"></path><path d="M52.3195 128.361C52.1166 129.333 51.7962 130.276 51.3654 131.17C51.2533 131.403 51.0462 131.577 50.7969 131.647L50.4586 131.731L49.2676 132.012C48.8683 132.1 48.6247 132.151 48.3777 132.195L47.9277 132.269L47.7044 132.303L47.0006 132.405C46.7739 132.428 46.5641 132.442 46.3577 132.452C45.9686 132.479 45.7724 132.492 45.5761 132.499C45.3799 132.506 45.1329 132.499 44.8994 132.479L44.622 131.565L44.5881 132.459C44.4325 132.459 44.2836 132.459 44.1314 132.432C43.9114 132.405 43.6983 132.361 43.4851 132.313L43.3227 131.369L43.1705 132.252C43.0137 132.228 42.8588 132.193 42.7069 132.147C42.4488 132.067 42.1957 131.971 41.949 131.86L41.9998 130.916L41.6919 131.755C41.5842 131.718 41.479 131.674 41.3772 131.623C40.9232 131.387 40.4985 131.098 40.1117 130.764C38.2339 129.15 37.4794 126.646 38.0444 123.905C38.2609 122.871 38.6425 121.878 39.1745 120.965C40.1896 119.226 41.8813 117.957 44.0874 117.294C44.8757 117.114 45.5728 116.928 46.2562 116.735C46.4471 116.681 46.6507 116.692 46.8348 116.766C47.1045 116.859 47.3669 116.972 47.6198 117.104C51.3823 119.276 53.2601 123.793 52.3195 128.361ZM49.88 130.117C50.1797 129.437 50.4065 128.727 50.5567 127.999C51.3383 124.189 49.8056 120.44 46.7367 118.667C46.6478 118.617 46.5551 118.574 46.4592 118.539C45.8434 118.711 45.2107 118.877 44.5543 119.026C43.3802 119.364 41.7054 120.173 40.7275 121.861C40.2952 122.61 39.9835 123.422 39.8038 124.267C39.3741 126.351 39.9155 128.229 41.2892 129.41C41.57 129.655 41.8789 129.865 42.2095 130.036L42.5783 130.182C42.7896 130.279 43.0065 130.364 43.228 130.435C43.3103 130.458 43.3939 130.476 43.4784 130.489L43.8708 130.564C44.0281 130.602 44.1874 130.631 44.3479 130.652C44.4513 130.664 44.5552 130.671 44.6592 130.672H44.8927C45.1837 130.672 45.3596 130.699 45.5389 130.696C45.7183 130.692 45.8773 130.696 46.0194 130.669C46.0194 130.669 46.2427 130.669 46.2495 130.669C46.4288 130.669 46.6115 130.648 46.7942 130.632L49.8123 130.05L49.88 130.117Z" fill="#221F1F"></path><path d="M42.5107 132.398C41.5651 132.11 40.6895 131.63 39.9392 130.987C37.2324 128.656 36.823 124.473 38.9242 120.819C40.0408 118.886 41.909 117.501 44.084 116.996C55.3275 114.411 59.5975 112.029 59.6483 112.005C60.216 111.692 60.9304 111.891 61.2529 112.454C61.5754 113.017 61.3867 113.734 60.8291 114.066C60.6498 114.171 56.2918 116.627 44.6254 119.31C43.0904 119.67 41.7733 120.65 40.9881 122.017C39.7328 124.186 39.3539 127.36 41.4855 129.2C43.6171 131.041 47.1461 130.479 50.5838 129.559C51.6665 129.268 52.7526 129.001 53.8015 128.74C62.4566 126.595 69.9342 124.744 73.6189 112.838C73.8303 112.234 74.4813 111.907 75.0918 112.096C75.7023 112.286 76.0532 112.924 75.8858 113.541C74.0283 119.544 71.1692 123.638 66.8924 126.422C63.1367 128.865 58.8802 129.921 54.3733 131.038C53.3346 131.295 52.2586 131.562 51.1996 131.846C49.0917 132.408 45.5796 133.345 42.5107 132.398Z" fill="#221F1F"></path><path d="M82.6867 122.717C81.561 122.381 80.5219 121.803 79.6415 121.025C77.7535 119.333 76.9787 116.901 77.4592 114.177C78.4438 108.581 84.4428 103.113 92.3839 100.568C97.4592 98.9443 101.678 99.1203 103.952 101.052C104.991 101.935 106.138 103.614 105.695 106.598C105.221 109.799 103.641 112.928 101.127 115.652C98.4201 118.572 94.6982 120.947 90.2996 122.517L90.232 122.538C87.4473 123.336 84.8454 123.387 82.6867 122.717ZM101.012 102.125C99.1543 101.55 96.3426 101.786 93.0944 102.822C86.0804 105.069 80.6058 109.9 79.7836 114.576C79.4453 116.461 79.9596 118.119 81.2115 119.246C83.0149 120.859 86.121 121.238 89.5248 120.261C93.5343 118.823 96.9381 116.667 99.3709 114.035C101.557 111.666 102.927 108.96 103.333 106.253C103.56 104.723 103.248 103.583 102.403 102.869C101.995 102.528 101.522 102.275 101.012 102.125Z" fill="#221F1F"></path></svg>