<svg viewBox="0 0 200 200" xmlns="http://www.w3.org/2000/svg" class="absolute top-28 -left-21 lg:-left-50 -z-1"><path fill="#B1D1FF" d="M36.4,-53.6C48.6,-48.7,60.9,-41.1,70.1,-29.5C79.3,-17.9,85.3,-2.4,81.1,10.1C76.9,22.6,62.5,32.2,50.2,39.9C37.9,47.6,27.7,53.6,16.2,58.3C4.8,63.1,-7.9,66.6,-22.2,66.6C-36.5,66.5,-52.5,62.9,-61.8,53C-71.1,43.2,-73.8,27.1,-74.4,11.7C-75,-3.6,-73.4,-18.2,-69,-32.9C-64.5,-47.7,-57.1,-62.5,-45.1,-67.5C-33.2,-72.4,-16.6,-67.4,-2.3,-63.9C12.1,-60.4,24.2,-58.4,36.4,-53.6Z" ></path></svg>