<svg version="1.1" id="Layer_1" xmlns="http://www.w3.org/2000/svg" xmlns:xlink="http://www.w3.org/1999/xlink" x="0px" y="0px"
	 viewBox="0 0 413 330" style="enable-background:new 0 0 413 330;" xml:space="preserve">

<path fill="#B1D1FF" d="M223.9,87.6c24.3,9.8,48.8,24.9,67.1,48s30.3,54,21.9,78.9s-37,44-61.5,59.4c-24.5,15.3-44.8,27.3-67.7,36.7
	c-22.7,9.6-48,16.5-76.5,16.5c-28.5-0.2-60.4-7.4-78.9-27.1C9.8,280.5,4.4,248.4,3.2,217.7c-1.2-30.5,2-59.6,10.8-88.8
	c9-29.5,23.7-59,47.6-68.9c23.7-9.8,56.8,0.2,85.3,7.2C175.5,74,199.6,78,223.9,87.6z"/>
<path fill="#F9A8D4" d="M409.4,89c12.5,48.2-22.6,102.3-64.5,128.4c-42.2,26.3-91.2,24.8-125.7,0.4c-34.5-24.2-54.5-71.6-42.6-119
	s56-95,108.2-97.7C336.8-1.4,397.1,40.8,409.4,89z"/>
</svg>
